<?xml version="1.0" encoding="UTF-8" standalone="no"?>
<svg xmlns:svg="http://www.w3.org/2000/svg"
  xmlns="http://www.w3.org/2000/svg"
  xmlns:inkscape="http://www.inkscape.org/namespaces/inkscape"
  version="1.0"
  viewBox="-0.25 -0.25 100.5 75.5"
  width="100.5" height="75.5">
<desc>Clipart software</desc>
<rect x="-0.24999" y="-0.249987" width="100.5" height="75.5" fill="none" stroke-width="0.1005" stroke="blue" />
<g fill-rule="evenodd" fill="rgb(71,66,64)" stroke="rgb(0,0,0)" stroke-width="0" >
<path d="M 0,75 L 5.25,75 L 4.75,71.25 L 4.25,66.75 L 4.5,60.75 L 4.75,56.25 L 6,51.25 L 7,48.75 L 8,46.25 L 9.5,43.25 L 10.25,41.75 L 10,37 L 10.5,33.5 L 10.25,33.5 L 8.75,33.75 L 8.25,33.5 L 8,33.75 L 6.25,33.25 L 6,33.5 L 3.5,32.75 L 1.75,32 L 1.5,31.25 L 1,31 L 0,30.75  z"/>
</g>
<g fill-rule="evenodd" fill="rgb(189,186,182)" stroke="rgb(0,0,0)" stroke-width="0" >
<path d="M 5.25,75 L 22.75,75 L 23,73.25 L 22.75,72.5 L 23,70.5 L 22.75,68 L 23.25,66 L 23.5,64.5 L 24.5,64.75 L 24.25,64.25 L 23,63.25 L 21.5,62.25 L 21,61.25 L 22,61.5 L 22.5,62 L 23.25,62.75 L 24.25,63.75 L 25.25,64.5 L 25.75,64.75 L 25.75,64.5 L 24.75,63.5 L 23,61.75 L 22.25,61 L 22.75,60.75 L 23.75,61.5 L 24.25,61.75 L 24.75,61.25 L 25,60.75 L 24.75,60.25 L 24.25,60.5 L 23.75,60 L 23.5,60.25 L 23.25,60 L 22.5,60.25 L 22.25,59.5 L 20.5,58.5 L 20.75,58 L 20.25,57.75 L 20,58 L 20.25,58.75 L 21,59.5 L 20.25,59.75 L 19.75,59.25 L 19.5,59.25 L 19.25,59.75 L 18.5,59.5 L 18,58.5 L 17.5,58.25 L 17,58.75 L 12.5,59 L 10.75,58.5 L 10,58.75 L 8.25,58.5 L 6.25,59.5 L 5.75,60 L 5,62 L 4.5,60.75 L 4.25,66.75 L 4.75,71.25  z"/>
</g>
<g fill-rule="evenodd" fill="rgb(198,193,183)" stroke="rgb(0,0,0)" stroke-width="0" >
<path d="M 22.75,75 L 44.5,75 L 44.75,73.25 L 42.5,72.25 L 41,71.5 L 40.5,71.25 L 41,71 L 43.25,70.75 L 44,69.75 L 43.75,69.25 L 44,68.5 L 43.5,67.5 L 41.5,66.25 L 40.5,65.75 L 37.25,65.5 L 33.5,64.75 L 32,64.25 L 31.5,64 L 31.25,64.25 L 30.75,63.75 L 30.25,63.5 L 29.75,63.75 L 28,63 L 27.75,62.75 L 27.5,63 L 26.5,62 L 25.75,61.25 L 26,61 L 25,60.75 L 24.75,61.25 L 24.25,61.75 L 23.75,61.5 L 22.75,60.75 L 22.25,61 L 23,61.75 L 24.75,63.5 L 25.75,64.5 L 27,65.5 L 28.5,65.75 L 30.25,66.75 L 31,67.75 L 33.25,68.75 L 33.5,69.25 L 31.25,68.5 L 27,66.25 L 25.75,65.25 L 24.5,64.75 L 23.5,64.5 L 23.25,66 L 22.75,68 L 23,70.5 L 22.75,72.5 L 23,73.25  z"/>
</g>
<g fill-rule="evenodd" fill="rgb(198,190,177)" stroke="rgb(0,0,0)" stroke-width="0" >
<path d="M 44.5,75 L 56.75,75 L 56.25,74.5 L 52.75,73 L 51.25,72.5 L 54.25,72 L 59.5,71.25 L 63,70.25 L 66,69.25 L 67.75,68.5 L 71,66.75 L 71,66.5 L 70.75,64.75 L 70,63.75 L 69,62.25 L 67.5,61 L 66.25,61.25 L 63.75,62.5 L 60,63.75 L 56.75,64.5 L 52.75,65 L 51.5,65.25 L 51.25,65 L 51,65.25 L 50.5,65 L 50.25,65.25 L 46.25,65 L 45.75,65.5 L 45.5,65.5 L 44,65.5 L 43.5,65.75 L 42.25,65.25 L 42,65.5 L 41.5,65.25 L 40.5,65.75 L 41.5,66.25 L 43.5,67.5 L 44,68.5 L 43.75,69.25 L 44,69.75 L 43.25,70.75 L 41,71 L 41,71.5 L 42.5,72.25 L 44.75,73.25  z"/>
</g>
<g fill-rule="evenodd" fill="rgb(138,110,69)" stroke="rgb(0,0,0)" stroke-width="0" >
<path d="M 56.75,75 L 60.25,75 L 60,74.5 L 58,73.25 L 58.25,72.75 L 63.5,71 L 66,70.25 L 67.25,70.5 L 68.25,71.25 L 70,72.25 L 71.5,73.5 L 73,75 L 74.5,75 L 74.25,74.25 L 73.5,73.25 L 72.25,71.25 L 71.75,69.5 L 72.25,68.5 L 73,68.25 L 73.5,67.25 L 72.5,67 L 73.5,66 L 75.5,64.75 L 76.75,63.75 L 78.5,62.25 L 83.25,57.5 L 84.5,55.5 L 85,55 L 86,53.25 L 87,51.5 L 86.25,52.25 L 85.75,53.25 L 84.5,55.25 L 83.75,56 L 82.75,57.5 L 82.25,58 L 81.5,58.75 L 81,59.25 L 80,60.25 L 78,62 L 76.25,63.5 L 74.25,64.75 L 72.25,66 L 71,66.5 L 71,66.75 L 67.75,68.5 L 66,69.25 L 63,70.25 L 59.5,71.25 L 54.25,72 L 51.25,72.5 L 52.75,73 L 56.25,74.5  z"/>
</g>
<g fill-rule="evenodd" fill="rgb(97,66,46)" stroke="rgb(0,0,0)" stroke-width="0" >
<path d="M 60.25,75 L 73,75 L 71.5,73.5 L 70,72.25 L 68.25,71.25 L 67.25,70.5 L 66,70.25 L 63.5,71 L 58.25,72.75 L 58,73.25 L 60,74.5  z"/>
</g>
<g fill-rule="evenodd" fill="rgb(97,66,46)" stroke="rgb(0,0,0)" stroke-width="0" >
<path d="M 74.5,75 L 82.5,75 L 80.75,73.25 L 79.25,72 L 78.5,71.25 L 78,70.5 L 78.5,70 L 79,68.75 L 79.75,68 L 80.75,67.25 L 87,61.25 L 88.25,61.5 L 88.75,62 L 90.25,63.5 L 91,63.75 L 94,67 L 94.75,68 L 95.25,68.5 L 95.75,69.5 L 96.25,70.5 L 96.75,72.5 L 96.25,73.75 L 95.75,74.25 L 95.5,75 L 100,74.75 L 100,68.25 L 99.25,68 L 99.5,67.5 L 98.25,66.5 L 94.25,65.25 L 93.25,64.75 L 92,63.75 L 91,63.25 L 90,62.25 L 89.5,61.5 L 89,61 L 88.5,60.75 L 87.5,59.5 L 86,57.75 L 86.25,57.5 L 85.75,56.75 L 85.5,55.75 L 86,55.25 L 85.75,55 L 88,50.75 L 88.5,50.5 L 89,49.75 L 90,49.25 L 92.75,47.75 L 92.75,47.25 L 92,47.5 L 89,48.25 L 88,49.5 L 87.5,50.5 L 87,51.5 L 86,53.25 L 85,55 L 84.5,55.5 L 83.25,57.5 L 78.5,62.25 L 76.75,63.75 L 75.5,64.75 L 73.5,66 L 72.5,67 L 73.5,67.25 L 73,68.25 L 72.25,68.5 L 71.75,69.5 L 72.25,71.25 L 73.5,73.25 L 74.25,74.25  z"/>
</g>
<g fill-rule="evenodd" fill="rgb(138,110,69)" stroke="rgb(0,0,0)" stroke-width="0" >
<path d="M 82.5,75 L 83,75 L 82.75,74.25 L 81,72.75 L 79.25,71 L 79,69.5 L 80,68.25 L 81.75,67.5 L 83,67 L 83.5,66.5 L 84,66 L 85,65.5 L 85.75,64.25 L 86.25,63 L 87,62.25 L 88.25,62 L 88.75,62.5 L 90,63.5 L 90.25,63.5 L 88.75,62 L 88.25,61.5 L 87,61.25 L 80.75,67.25 L 79.75,68 L 79,68.75 L 78.5,70 L 78,70.5 L 78.5,71.25 L 79.25,72 L 80.75,73.25  z"/>
</g>
<g fill-rule="evenodd" fill="rgb(194,186,176)" stroke="rgb(0,0,0)" stroke-width="0" >
<path d="M 83,75 L 92,75 L 91.75,74.5 L 92.5,73.75 L 93,72.5 L 93.5,72 L 93.75,71.25 L 94.75,69.75 L 95,69 L 94.75,68.75 L 95,68.5 L 94.75,68 L 94,67.75 L 92.75,66.25 L 92.25,65.75 L 90.25,63.5 L 90,63.5 L 88.75,62.5 L 88.25,62 L 87,62.25 L 86.25,63 L 85.75,64.25 L 85,65.5 L 84,66 L 83.5,66.5 L 83,67 L 81.75,67.5 L 80,68.25 L 79,69.5 L 79.25,71 L 81,72.75 L 82.75,74.25  z"/>
</g>
<g fill-rule="evenodd" fill="rgb(138,110,69)" stroke="rgb(0,0,0)" stroke-width="0" >
<path d="M 92,75 L 95.5,75 L 95.75,74.25 L 96.25,73.75 L 96.75,72.5 L 96.25,70.5 L 95.75,69.5 L 95.25,68.5 L 94.75,68 L 95,68.5 L 94.75,68.75 L 95,69 L 94.75,69.75 L 93.75,71.25 L 93.5,72 L 93,72.5 L 92.5,73.75 L 91.75,74.5  z"/>
</g>
<g fill-rule="evenodd" fill="rgb(176,149,116)" stroke="rgb(0,0,0)" stroke-width="0" >
<path d="M 41,71 L 40.5,71.25 L 41,71.5 L 41,71 L 40.5,71.25  z"/>
</g>
<g fill-rule="evenodd" fill="rgb(176,149,116)" stroke="rgb(0,0,0)" stroke-width="0" >
<path d="M 39,71.25 L 39.75,71 L 39,70.75  z"/>
</g>
<g fill-rule="evenodd" fill="rgb(176,149,116)" stroke="rgb(0,0,0)" stroke-width="0" >
<path d="M 1.5,71 L 2,70.5 L 1.5,70.25 L 1.25,70.75  z"/>
</g>
<g fill-rule="evenodd" fill="rgb(176,149,116)" stroke="rgb(0,0,0)" stroke-width="0" >
<path d="M 36.25,70.5 L 36.75,70.25 L 35.5,69.75 L 35.75,70.25  z"/>
</g>
<g fill-rule="evenodd" fill="rgb(176,149,116)" stroke="rgb(0,0,0)" stroke-width="0" >
<path d="M 24.5,64.75 L 25.75,65.25 L 27,66.25 L 31.25,68.5 L 33.5,69.25 L 33.25,68.75 L 31,67.75 L 30.25,66.75 L 28.5,65.75 L 27,65.5 L 25.75,64.5 L 25.75,64.75 L 25.25,64.5 L 24.25,63.75 L 23.25,62.75 L 22.5,62 L 22,61.5 L 21,61.25 L 21.5,62.25 L 23,63.25 L 24.25,64.25 L 24.5,64.75 L 26.25,65.5 L 26.75,66 L 32.25,68.75  z"/>
</g>
<g fill-rule="evenodd" fill="rgb(49,31,22)" stroke="rgb(0,0,0)" stroke-width="0" >
<path d="M 77.25,69.25 L 78,69 L 78.75,68.25 L 79.75,67.5 L 85,62.25 L 85.25,61.25 L 84.5,60.25 L 84,59.75 L 82.75,59.5 L 81.25,60.5 L 80.5,61.25 L 79.5,62 L 78,63.25 L 76.75,64.25 L 75.75,65 L 74.25,66 L 74,67 L 75.5,67.75 L 76.25,68.5 L 77.25,69  z"/>
</g>
<g fill-rule="evenodd" fill="rgb(49,31,22)" stroke="rgb(0,0,0)" stroke-width="0" >
<path d="M 88.5,50.5 L 88,50.75 L 85.75,55 L 86,55.25 L 85.5,55.75 L 85.75,56.75 L 86.25,57.5 L 86,57.75 L 87.5,59.5 L 88.5,60.75 L 89,61 L 89.5,61.5 L 90,62.25 L 91,63.25 L 92,63.75 L 93.25,64.75 L 94.25,65.25 L 98.25,66.5 L 99.5,67.5 L 99.25,68 L 100,68.25 L 100,54.75 L 97.5,54.5 L 96,54 L 92.75,53.5 L 92.5,52.75 L 91.75,52.5 L 90.75,51.75 L 88.75,51.5 L 89,51 L 88.5,50.5 L 87.75,51.25 L 85.75,55.25 L 86,55.5 L 85.5,56 L 85.75,56.75 L 86.25,57.75 L 86,58 L 87.5,59.5 L 88.5,60.75 L 89.25,61.25 L 89.75,61.75 L 90,62.25 L 91.5,63.5 L 92.5,64 L 93,64.5 L 94,65 L 95,65.5 L 98.25,66.5 L 99.5,67.75 L 99.25,68  z"/>
</g>
<g fill-rule="evenodd" fill="rgb(138,110,69)" stroke="rgb(0,0,0)" stroke-width="0" >
<path d="M 90.25,63.5 L 92.25,65.75 L 92.75,66.25 L 94,67.75 L 94.75,68 L 94,67 L 91,63.75 L 90.25,63.5 L 92.25,65.75 L 92.75,66.25  z"/>
</g>
<g fill-rule="evenodd" fill="rgb(97,66,46)" stroke="rgb(0,0,0)" stroke-width="0" >
<path d="M 71.75,67.75 L 72.25,67.5 L 71.75,67.25  z"/>
</g>
<g fill-rule="evenodd" fill="rgb(194,186,176)" stroke="rgb(0,0,0)" stroke-width="0" >
<path d="M 71,66.5 L 72.25,66 L 74.25,64.75 L 76.25,63.5 L 78,62 L 80,60.25 L 81,59.25 L 81.5,58.75 L 82.25,58 L 82.75,57.5 L 83.75,56 L 84.5,55.25 L 85.75,53.25 L 86.25,52.25 L 87,51.5 L 87.5,50.5 L 88,49.5 L 87.75,48.75 L 88.25,47.75 L 89,45.5 L 89.5,43.5 L 90.25,39.5 L 90.5,37 L 90,33.5 L 89.25,34.25 L 87.75,35 L 84.75,35.75 L 81.75,36.25 L 81.25,35.75 L 81,35 L 80.75,35 L 81,36.75 L 80.75,38.75 L 81,39.75 L 80.25,46 L 79,49.25 L 77.75,51.5 L 77,52.25 L 76.25,53.25 L 74.25,55.25 L 74,56 L 72.5,57.25 L 71,58.5 L 70,59.25 L 69,59.75 L 67.5,60.75 L 67.5,61 L 69,62.25 L 70,63.75 L 70.75,64.75  z"/>
</g>
<g fill-rule="evenodd" fill="rgb(176,149,116)" stroke="rgb(0,0,0)" stroke-width="0" >
<path d="M 25,60.75 L 26,61 L 25.75,61.25 L 26.5,62 L 27.5,63 L 27.75,62.75 L 28,63 L 29.75,63.75 L 30.25,63.5 L 30.75,63.75 L 31.25,64.25 L 31.5,64 L 32,64.25 L 33.5,64.75 L 37.25,65.5 L 40.5,65.75 L 41.5,65.25 L 42,65.5 L 42.25,65.25 L 43.5,65.75 L 44,65.5 L 43,64.5 L 39.75,64 L 39.25,63.5 L 36,62.25 L 34.25,61.5 L 33.75,61.75 L 33,61 L 33,60.5 L 31.5,60.25 L 31,59.5 L 30.5,59.25 L 30,59.5 L 28,58.5 L 27,58 L 26,57.5 L 25.5,56.5 L 24,56 L 22.75,54.75 L 22.25,54.25 L 21.75,53.75 L 21.25,53.25 L 21.5,52.75 L 19.75,50.75 L 18.75,49.5 L 19,49 L 18.5,48 L 17.75,46.25 L 16.75,44 L 16.25,42.5 L 16.25,42 L 15.75,41.75 L 15,39.5 L 14,37 L 13.5,35 L 13,38 L 13.5,41 L 13,42 L 13.5,44 L 14.75,46 L 14.5,46.25 L 15,47 L 14.75,47.25 L 15,48 L 14.75,48.75 L 15.25,49.25 L 15.5,49.75 L 15,50.25 L 15.25,51 L 16.5,51.25 L 17,52.25 L 17.75,53.25 L 18.5,55.25 L 18.25,55.75 L 19.25,56.25 L 19,57 L 20,58 L 20.25,57.75 L 20.75,58 L 20.5,58.5 L 22.25,59.5 L 22.5,60.25 L 23.25,60 L 23.5,60.25 L 23.75,60 L 24.25,60.5 L 24.75,60.25 L 25,60.75 L 26,61 L 25.75,61.5 L 26.5,62 L 27.25,62.75 L 27.75,63 L 28,62.75 L 28.5,63.25 L 30.25,63.75 L 30.5,63.5 L 31.5,64.25 L 31.75,64 L 35,65  z"/>
</g>
<g fill-rule="evenodd" fill="rgb(138,110,69)" stroke="rgb(0,0,0)" stroke-width="0" >
<path d="M 44,65.5 L 45.5,65.5 L 46,65 L 46.25,65 L 50.25,65.25 L 50.5,65 L 51,65.25 L 51.25,65 L 51.5,65.25 L 52.75,65 L 56.75,64.5 L 60,63.75 L 63.75,62.5 L 66.25,61.25 L 67.5,61 L 67.5,60.75 L 69,59.75 L 70,59.25 L 71,58.5 L 72.5,57.25 L 74,56 L 74.25,55.25 L 74,54.75 L 74.75,54 L 75.25,53 L 74,53.5 L 73.25,54.25 L 72.5,53.75 L 72,54.25 L 71,55 L 70.5,55.25 L 70,54.25 L 69.75,53.5 L 70,53.25 L 69.5,53 L 69,53.75 L 68.5,54 L 68.25,54.5 L 67.5,56 L 66.5,56.5 L 65.75,57.25 L 65.5,58 L 64.5,58.5 L 64.25,59 L 62.75,60 L 61.5,60.75 L 60.5,61.25 L 59.75,61.5 L 59,62 L 58.25,62.25 L 56.25,62.75 L 53.25,63.25 L 48.75,63.5 L 45.25,63.25 L 45,63.75 L 43,63.5 L 38.25,62.25 L 37.5,62 L 33.5,60.75 L 33,60.5 L 33,61 L 33.75,61.75 L 34.25,61.5 L 36,62.25 L 39.25,63.5 L 39.75,64 L 43,64.5  z"/>
</g>
<g fill-rule="evenodd" fill="rgb(176,149,116)" stroke="rgb(0,0,0)" stroke-width="0" >
<path d="M 45.5,65.5 L 45.75,65.5 L 46.25,65 L 46,65  z"/>
</g>
<g fill-rule="evenodd" fill="rgb(53,36,16)" stroke="rgb(0,0,0)" stroke-width="0" >
<path d="M 37.5,62 L 38.25,62.25 L 43,63.5 L 45,63.75 L 45.25,63.25 L 48.75,63.5 L 53.25,63.25 L 56.25,62.75 L 58.25,62.25 L 58.5,61.75 L 59,62 L 59.75,61.5 L 60,61 L 60.75,60.75 L 61.25,60.25 L 62.25,59.75 L 63,59 L 63.75,58.75 L 64.25,57.75 L 66,56 L 65.75,55.25 L 66.75,54.5 L 67,54 L 66.5,52.75 L 65.5,53 L 65.25,52.25 L 65.5,51.25 L 65,50.75 L 64,50.5 L 63.5,49.5 L 62.5,48.25 L 62.25,47.75 L 61.75,46.75 L 61,47 L 60.5,46.5 L 60,45.25 L 59.5,44.75 L 58.75,44 L 57.5,42 L 57,41.75 L 56.75,41 L 56.25,40.5 L 55.5,40.25 L 54.75,39.5 L 54.25,41 L 54.5,41.25 L 52.25,41.75 L 51.5,40.75 L 50,41 L 49.25,41.25 L 48.75,41 L 49,41.75 L 50.5,42.25 L 50,42.75 L 49,42.5 L 48.75,42.25 L 48.25,42.5 L 47.5,42 L 47,42.25 L 46.75,41.75 L 46.25,42 L 46,43.5 L 44.75,43.25 L 44.25,43.75 L 43.75,44.25 L 42.75,44.75 L 42.25,45.25 L 41.75,45.75 L 41.5,46.25 L 40.75,46.5 L 40.5,46.25 L 40.25,47 L 39.5,47.25 L 39.75,48 L 38.75,48.5 L 38.25,49 L 38.5,50 L 37.5,50.25 L 37,48.75 L 36,49 L 35.5,48.5 L 35.75,46.5 L 35.5,46.25 L 35.75,46 L 35.5,45.5 L 35.25,45 L 34.75,48.75 L 34.5,49.5 L 35,50 L 34.75,50.5 L 35.75,52.5 L 36.5,54.25 L 36.75,54.75 L 35.75,55.5 L 36,56 L 35.5,56.25 L 34,55.25 L 33.75,54.5 L 32.5,54 L 31.5,52.5 L 31,52 L 30.25,51.25 L 29.75,50.25 L 29,48.75 L 28.25,48 L 28.5,50 L 28.25,50.75 L 28.75,51.75 L 29.75,54 L 30.5,55 L 31.25,56 L 32.5,57.5 L 33.25,58.5 L 33,59 L 34,59.5 L 34.5,60 L 37.5,61.75 L 37.5,62 L 38.75,62.25 L 42.25,63.25 L 43.5,63.5  z"/>
</g>
<g fill-rule="evenodd" fill="rgb(138,110,69)" stroke="rgb(0,0,0)" stroke-width="0" >
<path d="M 44,63.25 L 44.5,63 L 44,62.75  z"/>
</g>
<g fill-rule="evenodd" fill="rgb(97,66,46)" stroke="rgb(0,0,0)" stroke-width="0" >
<path d="M 58.25,62.25 L 59,62 L 58.5,61.75  z"/>
</g>
<g fill-rule="evenodd" fill="rgb(201,193,185)" stroke="rgb(0,0,0)" stroke-width="0" >
<path d="M 4.5,60.75 L 5,62 L 5.75,60 L 6.25,59.5 L 8.25,58.5 L 10,58.75 L 10.75,58.5 L 12.5,59 L 17,58.75 L 17.5,58.25 L 17,57.25 L 16.5,56.75 L 17,56.5 L 18.25,58 L 19.5,59.25 L 19.75,59.25 L 20.25,59.75 L 21,59.5 L 20.25,58.75 L 20,58 L 19,57 L 19.25,56.25 L 18.25,55.75 L 18.5,55.25 L 17.75,53.25 L 17,52.25 L 16.5,51.25 L 15.25,51 L 15,50.25 L 15.5,49.75 L 15.25,49.25 L 14.75,48.75 L 15,48 L 14.75,47.25 L 15,47 L 14.5,46.25 L 14.75,46 L 13.5,44 L 13,42 L 13.5,41 L 13,38 L 13.5,35 L 13.25,33 L 13.5,32.75 L 13.25,31.25 L 13.75,29 L 13.5,28.75 L 14.25,26.25 L 14.75,25.25 L 15.25,23.75 L 16,22.25 L 16.75,20 L 17.25,19 L 17.75,18.5 L 17.5,18.25 L 16.75,19 L 15.5,21 L 14.75,22 L 14.25,23 L 13,25 L 12.75,25 L 12.5,26.5 L 11,31 L 10.25,33.5 L 10.5,33.5 L 10,37 L 10.25,41.75 L 9.5,43.25 L 8,46.25 L 7,48.75 L 6,51.25 L 4.75,56.25 L 4.5,60.75  z"/>
</g>
<g fill-rule="evenodd" fill="rgb(124,68,23)" stroke="rgb(0,0,0)" stroke-width="0" >
<path d="M 33,60.5 L 33.5,60.75 L 37.5,62 L 37.5,61.75 L 34.5,60 L 34,59.5 L 33,59 L 33.25,58.5 L 32.5,57.5 L 31.25,56 L 30.5,55 L 29.75,54 L 28.75,51.75 L 28.25,50.75 L 28.5,50 L 28.25,48 L 28,43.25 L 27.5,38.5 L 27.25,38 L 27.5,37 L 27,35.75 L 27.25,34.25 L 27,34 L 27.5,32 L 27,31.5 L 27.25,30.25 L 28,29.75 L 27.5,28.75 L 28,28.5 L 28.5,27.5 L 28.75,27 L 28.5,26.75 L 28.75,25.75 L 28.25,25.25 L 28,24.5 L 27.5,25.25 L 26.75,25.5 L 26,26.5 L 25.5,26 L 25.75,25.25 L 26.5,25 L 26.75,24.25 L 27.25,23.75 L 27.75,22.75 L 27,23 L 26.5,23.5 L 26,23.75 L 25.75,23.25 L 25,24 L 24.75,24.5 L 24.25,24.25 L 23.75,24.75 L 23.25,25.75 L 22.75,26.25 L 22.5,26.75 L 22,27.25 L 21.75,28.25 L 21.25,28.75 L 20.75,29.75 L 19.75,30.75 L 19.25,31.75 L 18.25,32.5 L 17.75,32.25 L 18,30.75 L 17,30.5 L 17.25,31.75 L 16.25,33 L 16,33.75 L 16.25,34 L 15.75,36 L 16,36.25 L 15.75,37.25 L 16,37.5 L 15.75,37.75 L 16,38 L 15.75,38.5 L 16.25,41 L 16,41.25 L 16.25,42 L 16.25,42.5 L 16.75,44 L 17.75,46.25 L 18.5,48 L 19,49 L 18.75,49.5 L 19.75,50.75 L 21.5,52.75 L 21.25,53.25 L 21.75,53.75 L 22.25,54.25 L 22.75,54.75 L 24,56 L 25.5,56.5 L 26,57.5 L 27,58 L 28,58.5 L 30,59.5 L 30.5,59.25 L 31,59.5 L 31.5,60.25 L 33,60.5 L 36.25,61.5  z"/>
</g>
<g fill-rule="evenodd" fill="rgb(97,66,46)" stroke="rgb(0,0,0)" stroke-width="0" >
<path d="M 59.75,61.5 L 60.5,61.25 L 61.5,60.75 L 62.75,60 L 64.25,59 L 64.5,58.5 L 65.5,58 L 65.75,57.25 L 66.5,56.5 L 67.5,56 L 68.25,54.5 L 68.5,54 L 69,53.75 L 69.5,53 L 70,51.25 L 69.75,51 L 70,50 L 69.25,49.75 L 68.25,50.25 L 67.75,50.5 L 66.5,51 L 65.5,51.25 L 65.25,52.25 L 65.5,53 L 66.5,52.75 L 67,54 L 66.75,54.5 L 65.75,55.25 L 66,56 L 64.25,57.75 L 63.75,58.75 L 63,59 L 62.25,59.75 L 61.25,60.25 L 60.75,60.75 L 60,61  z"/>
</g>
<g fill-rule="evenodd" fill="rgb(176,149,116)" stroke="rgb(0,0,0)" stroke-width="0" >
<path d="M 17.5,58.25 L 18,58.5 L 18.5,59.5 L 19.25,59.75 L 19.5,59.25 L 18.25,58 L 17,56.5 L 16.5,56.75 L 17,57.25 L 17.5,58.25 L 18.25,59  z"/>
</g>
<g fill-rule="evenodd" fill="rgb(15,11,8)" stroke="rgb(0,0,0)" stroke-width="0" >
<path d="M 28.25,48 L 29,48.75 L 29.75,50.25 L 30.25,51.25 L 31,52 L 31.5,52.5 L 32.5,54 L 33.75,54.5 L 34,55.25 L 35.5,56.25 L 36,56 L 35.75,55.5 L 36.75,54.75 L 36.5,54.25 L 35.75,52.5 L 34.75,50.5 L 35,50 L 34.5,49.5 L 34.75,48.75 L 35.25,45 L 35.5,41.5 L 35.25,41 L 36.25,40.75 L 36,40.25 L 35.5,39.5 L 36.25,37 L 36.75,36.25 L 37.25,35.75 L 37,35 L 37.5,34.5 L 38.25,32.25 L 38.75,31.75 L 39,31 L 40.25,29 L 40.5,27.75 L 40,27.5 L 39.75,27.75 L 39.5,27.5 L 39,28 L 37.75,28.5 L 36,29.25 L 35,30 L 34.5,30.5 L 33.5,31.25 L 32.75,32.25 L 32.25,33 L 31.5,32.75 L 31.25,33.75 L 30.25,35.25 L 29.25,37.25 L 28.75,38.25 L 28,42 L 28,43.25 L 28.25,48 L 28.75,48.5 L 29.75,50.5 L 30.75,51.75 L 32,53.25 L 33,54.25 L 34,54.75 L 34.25,55.5  z"/>
</g>
<g fill-rule="evenodd" fill="rgb(150,108,38)" stroke="rgb(0,0,0)" stroke-width="0" >
<path d="M 69.5,53 L 70,53.25 L 69.75,53.5 L 70,54.25 L 70.5,55.25 L 71,55 L 72,54.25 L 72.5,53.75 L 73.25,54.25 L 74,53.5 L 75.25,53 L 74.75,54 L 74,54.75 L 74.25,55.25 L 76.25,53.25 L 77,52.25 L 77.75,51.5 L 79,49.25 L 80.25,46 L 81,39.75 L 80.75,38.75 L 81,36.75 L 80.75,35 L 81,33.25 L 80,32.25 L 79.75,31.5 L 80,31.25 L 79.5,29.25 L 79.75,28.25 L 79.25,27.75 L 79.5,26.5 L 78.75,26.25 L 78.25,25 L 77.75,24.5 L 77,24.75 L 76.75,24 L 77.25,23.5 L 76.5,23 L 75.5,21.25 L 75.25,20.5 L 74.75,20.25 L 74.5,20.5 L 73.5,19.75 L 73,19.5 L 72,18.5 L 70.75,18 L 70.25,17.25 L 70,17.25 L 70.25,19 L 70.75,19.25 L 71,19 L 71.75,19.75 L 72,20.5 L 72.25,21 L 71.5,20.75 L 71,20 L 70,19.75 L 69.25,19 L 68.5,18.25 L 67,17.75 L 66.75,18.5 L 67,19 L 66.75,19.25 L 68.5,19.75 L 67.75,20.25 L 67.5,21.25 L 68.5,21.5 L 69,20.75 L 69.75,21 L 69.5,21.5 L 69,21.25 L 68.75,22.25 L 69,22.5 L 68.75,23 L 69.25,23.25 L 70,25 L 69.5,25.5 L 68.75,25.25 L 68.5,25.75 L 67.75,26 L 67,26.75 L 66.5,26.25 L 65.5,25.75 L 65,26 L 63,25 L 62.75,25.5 L 63.75,26.25 L 64.25,27.25 L 64.5,27.75 L 65.25,28.5 L 65.75,29.5 L 66.25,29.75 L 67.5,31 L 68,31.25 L 67.75,32 L 68.25,32.5 L 68,33.5 L 69,33.25 L 68.75,33.75 L 68.5,34.25 L 69.25,35 L 68.75,35.5 L 69.5,36.25 L 69.75,36.75 L 70.5,37.25 L 71,38.5 L 71.25,39 L 70.75,39.5 L 71.5,40.25 L 71.25,40.75 L 71.5,41.75 L 71.25,42 L 71.75,43 L 72,43.5 L 71.5,44 L 71.75,44.5 L 72,45.25 L 71.75,45.5 L 72,46 L 71.25,46.75 L 71,47.5 L 70.75,47.75 L 71,48 L 70.25,49 L 70.5,49.75 L 70,50 L 69.75,51 L 70,51.25 L 69.5,53 L 70,53.5 L 69.75,54 L 70.25,55  z"/>
</g>
<g fill-rule="evenodd" fill="rgb(51,31,21)" stroke="rgb(0,0,0)" stroke-width="0" >
<path d="M 88.5,50.5 L 89,51 L 88.75,51.5 L 90.75,51.75 L 91.75,52.5 L 92.5,52.75 L 92.75,53.5 L 96,54 L 97.5,54.5 L 100,54.75 L 100,26.25 L 99.5,26 L 99.25,26.25 L 98.25,25.75 L 97.75,25.25 L 96,25 L 95.5,26 L 95,27 L 93.5,26 L 93,25.5 L 90.5,26 L 90,27.5 L 89,27.25 L 89.5,29.25 L 90,30.25 L 90.5,31.75 L 90.75,32.5 L 91.5,33.5 L 92.25,34.5 L 93.25,35.75 L 94,36.75 L 95,38.5 L 96.25,40.5 L 99.25,46.5 L 94.5,46.75 L 93,47.25 L 92.75,47.25 L 92.75,47.75 L 90,49.25 L 89,49.75 L 88.5,50.5 L 89,51.25 L 88.75,51.5 L 91.25,52 L 91.75,52.5 L 92.75,53 L 93,53.5 L 96.75,54 L 98.25,54.5  z"/>
</g>
<g fill-rule="evenodd" fill="rgb(53,36,16)" stroke="rgb(0,0,0)" stroke-width="0" >
<path d="M 67.25,54 L 67.75,53.5 L 67.25,53 L 67,53.75  z"/>
</g>
<g fill-rule="evenodd" fill="rgb(53,36,16)" stroke="rgb(0,0,0)" stroke-width="0" >
<path d="M 67.5,53 L 67.75,52 L 67.25,52.25  z"/>
</g>
<g fill-rule="evenodd" fill="rgb(106,70,16)" stroke="rgb(0,0,0)" stroke-width="0" >
<path d="M 65.5,51.25 L 66.5,51 L 67.75,50.5 L 68.25,50.25 L 69.25,49.75 L 70,50 L 70.5,49.75 L 70.25,49 L 71,48 L 70.75,47.75 L 71,47.5 L 71.25,46.75 L 72,46 L 71.75,45.5 L 72,45.25 L 71.75,44.5 L 71.5,44 L 72,43.5 L 71.75,43 L 71.25,42 L 71.5,41.75 L 71.25,40.75 L 71.5,40.25 L 70.75,39.5 L 71.25,39 L 71,38.5 L 70.5,37.25 L 69.75,36.75 L 69.5,36.25 L 68.75,35.5 L 69.25,35 L 68.5,34.25 L 68.75,33.75 L 69,33.25 L 68,33.5 L 68.25,32.5 L 67.75,32 L 68,31.25 L 67.5,31 L 66.25,29.75 L 65.75,29.5 L 65.25,28.5 L 64.5,27.75 L 64.25,27.25 L 63.75,26.25 L 62.75,25.5 L 63,25 L 65,26 L 65.5,25.75 L 66.5,26.25 L 67,26.75 L 67.75,26 L 68.5,25.75 L 68.75,25.25 L 69.5,25.5 L 70,25 L 69.25,23.25 L 68.75,23 L 69,22.5 L 68.75,22.25 L 69,21.25 L 69.5,21.5 L 69.75,21 L 69,20.75 L 68.5,21.5 L 67.5,21.25 L 67.75,20.25 L 68.5,19.75 L 66.75,19.25 L 67,19 L 66.75,18.5 L 67,17.75 L 68.5,18.25 L 69.25,19 L 70,19.75 L 71,20 L 71.5,20.75 L 72.25,21 L 72,20.5 L 71.75,19.75 L 71,19 L 70.75,19.25 L 70.25,19 L 70,17.25 L 69,16.5 L 67.75,16.75 L 67.25,16 L 66.5,15.75 L 66.5,15.25 L 65.75,14.75 L 64.75,15.5 L 64.25,15 L 62.5,14.5 L 57.5,13.25 L 52.5,12.75 L 51.75,13.5 L 51.5,13.25 L 51.25,13.5 L 49.25,13 L 49.25,13.25 L 49,14 L 48,13.75 L 48,14 L 48.75,14.75 L 49.25,14.5 L 49,15 L 48.75,15.5 L 49,16.5 L 48.75,17 L 49.5,16.75 L 50,16 L 51.5,16.5 L 52,17 L 52.5,17.25 L 53,16.75 L 53.25,17.25 L 53,17.75 L 54.75,18 L 55.25,17.5 L 55.75,17.25 L 56.5,17.75 L 56.25,18.5 L 55.25,19 L 55.5,19.75 L 56.75,20 L 56.5,20.5 L 54.75,20.75 L 54.25,20.5 L 53.75,21 L 52.75,20.75 L 50.5,21.5 L 49.75,22 L 49.5,21.75 L 47.25,22.75 L 46.5,23.5 L 46.25,24 L 47.75,24.75 L 47.25,26 L 46.75,26.5 L 46.5,27 L 46,27.25 L 46.25,28.25 L 46,28.5 L 46.25,28.75 L 45.25,29.75 L 45.75,30.25 L 47.25,31.75 L 47.75,32.25 L 48.25,32 L 48.5,33 L 49.5,33.25 L 50.5,33.75 L 52.25,33.5 L 52.5,34.25 L 52,35 L 53,35.5 L 52.75,36 L 53.75,36.5 L 54.75,37.25 L 55.5,38 L 56,39.25 L 56.75,39.75 L 56.25,40.5 L 56.75,41 L 57,41.75 L 57.5,42 L 58.75,44 L 59.5,44.75 L 60,45.25 L 60.5,46.5 L 61,47 L 61.75,46.75 L 62.25,47.75 L 62.5,48.25 L 63.5,49.5 L 64,50.5 L 65,50.75  z"/>
</g>
<g fill-rule="evenodd" fill="rgb(124,68,23)" stroke="rgb(0,0,0)" stroke-width="0" >
<path d="M 35.5,45.5 L 35.75,46 L 35.5,46.25 L 35.75,46.5 L 35.5,48.5 L 36,49 L 37,48.75 L 37.5,50.25 L 38.5,50 L 38.25,49 L 38.75,48.5 L 39.75,48 L 39.5,47.25 L 40.25,47 L 40.5,46.25 L 40.75,46.5 L 41.5,46.25 L 41.75,45.75 L 42.25,45.25 L 41.25,44.75 L 41.75,44.25 L 41.25,42.5 L 41.5,41.75 L 41,41.25 L 40.25,41.5 L 40.5,41 L 40.75,40.25 L 39.5,40 L 39.75,41 L 38.5,40.75 L 38,41.25 L 37.25,43 L 36.75,43.5 L 37,44.75 L 36,45 L 35.5,45.5 L 35.75,46.25 L 35.5,46.5 L 35.75,46.75 L 35.5,48.75 L 36.5,49 L 37,48.75  z"/>
</g>
<g fill-rule="evenodd" fill="rgb(150,108,38)" stroke="rgb(0,0,0)" stroke-width="0" >
<path d="M 90,33.5 L 90.5,37 L 90.25,39.5 L 89.5,43.5 L 89,45.5 L 88.25,47.75 L 87.75,48.75 L 88,49.5 L 89,48.25 L 92,47.5 L 92.75,47.25 L 93,47.25 L 94.5,46.75 L 99.25,46.5 L 96.25,40.5 L 95,38.5 L 94,36.75 L 93.25,35.75 L 92.25,34.5 L 91.5,33.5 L 90.75,32.5 L 90.5,31.75 L 90,30.25 L 89.5,29.25 L 89.75,31.5 L 90,33.5 L 90.5,38 L 90,42 L 89.25,45.25 L 88.5,47.5 L 87.75,49.25  z"/>
</g>
<g fill-rule="evenodd" fill="rgb(53,36,16)" stroke="rgb(0,0,0)" stroke-width="0" >
<path d="M 40,46.25 L 40.5,46 L 40,45.75  z"/>
</g>
<g fill-rule="evenodd" fill="rgb(76,39,12)" stroke="rgb(0,0,0)" stroke-width="0" >
<path d="M 35.5,45.5 L 36,45 L 37,44.75 L 36.75,43.5 L 37.25,43 L 38,41.25 L 38.5,40.75 L 39.75,41 L 39.5,40 L 40.75,40.25 L 40.5,41 L 40.25,41.5 L 41,41.25 L 41.5,41.75 L 41.25,42.5 L 41.75,44.25 L 41.25,44.75 L 42.25,45.25 L 42.75,44.75 L 43.75,44.25 L 44.25,43.75 L 44.75,43.25 L 46,43.5 L 46.25,42 L 46.75,41.75 L 47,42.25 L 47.5,42 L 48.25,42.5 L 48.75,42.25 L 49,42.5 L 50,42.75 L 50.5,42.25 L 49,41.75 L 48.75,41 L 49.25,41.25 L 50,41 L 51.5,40.75 L 52.25,41.75 L 54.5,41.25 L 54.25,41 L 54.75,39.5 L 55.5,40.25 L 56.25,40.5 L 56.75,39.75 L 56,39.25 L 55.5,38 L 54.75,37.25 L 53.75,36.5 L 52.75,36 L 53,35.5 L 52,35 L 52.5,34.25 L 52.25,33.5 L 50.5,33.75 L 49.5,33.25 L 48.5,33 L 48.25,32 L 47.75,32.25 L 47.25,31.75 L 45.75,30.25 L 45.25,29.75 L 46.25,28.75 L 46,28.5 L 46.25,28.25 L 46,27.25 L 46.5,27 L 46.75,26.5 L 47.25,26 L 47.75,24.75 L 46.25,24 L 46.5,23.5 L 47.25,22.75 L 49.5,21.75 L 49.75,22 L 50.5,21.5 L 52.75,20.75 L 53.75,21 L 54.25,20.5 L 54.75,20.75 L 56.5,20.5 L 56.75,20 L 55.5,19.75 L 55.25,19 L 56.25,18.5 L 56.5,17.75 L 55.75,17.25 L 55.25,17.5 L 54.75,18 L 53,17.75 L 53.25,17.25 L 53,16.75 L 52.5,17.25 L 52,17 L 51.5,16.5 L 50,16 L 49.5,16.75 L 48.75,17 L 49,16.5 L 48.75,15.5 L 49,15 L 49.25,14.5 L 48.75,14.75 L 48,14 L 47,14.75 L 46.5,15 L 46,14.75 L 45.25,15 L 45,13.75 L 49,13.25 L 49.25,13.25 L 49.25,13 L 51.25,13.5 L 51.5,13.25 L 51.75,13.5 L 52.5,12.75 L 45.5,13 L 43.5,13.5 L 43.25,13.25 L 39.75,13.75 L 38.75,14.5 L 37.25,15.75 L 35.75,16.5 L 33.75,17.75 L 32.25,18.75 L 31.75,19.25 L 31.25,19.75 L 30,20.75 L 28,22.5 L 27.75,22.75 L 27.25,23.75 L 26.75,24.25 L 26.5,25 L 25.75,25.25 L 25.5,26 L 26,26.5 L 26.75,25.5 L 27.5,25.25 L 28,24.5 L 28.25,25.25 L 28.75,25.75 L 28.5,26.75 L 28.75,27 L 28.5,27.5 L 28,28.5 L 27.5,28.75 L 28,29.75 L 27.25,30.25 L 27,31.5 L 27.5,32 L 27,34 L 27.25,34.25 L 27,35.75 L 27.5,37 L 27.25,38 L 27.5,38.5 L 28,43.25 L 28,42 L 28.75,38.25 L 29.25,37.25 L 30.25,35.25 L 31.25,33.75 L 31.5,32.75 L 32.25,33 L 32.75,32.25 L 33.5,31.25 L 34.5,30.5 L 35,30 L 36,29.25 L 37.75,28.5 L 39,28 L 39.5,27.5 L 39.75,27.75 L 40,27.5 L 40.5,27.75 L 40.25,29 L 39,31 L 38.75,31.75 L 38.25,32.25 L 37.5,34.5 L 37,35 L 37.25,35.75 L 36.75,36.25 L 36.25,37 L 35.5,39.5 L 36,40.25 L 36.25,40.75 L 35.25,41 L 35.5,41.5 L 35.25,45  z"/>
</g>
<g fill-rule="evenodd" fill="rgb(76,39,12)" stroke="rgb(0,0,0)" stroke-width="0" >
<path d="M 38.25,42.75 L 38.75,42.5 L 38.25,42 L 38,42.5  z"/>
</g>
<g fill-rule="evenodd" fill="rgb(167,134,107)" stroke="rgb(0,0,0)" stroke-width="0" >
<path d="M 13.5,35 L 14,37 L 15,39.5 L 15.75,41.75 L 16.25,42 L 16,41.25 L 16.25,41 L 15.75,38.5 L 16,38 L 15.75,37.75 L 16,37.5 L 15.75,37.25 L 16,36.25 L 15.75,36 L 16.25,34 L 16,33.75 L 16.25,33 L 17.25,31.75 L 17,30.5 L 18,30.75 L 17.75,32.25 L 18.25,32.5 L 19.25,31.75 L 19.75,30.75 L 20.75,29.75 L 21.25,28.75 L 21.75,28.25 L 22,27.25 L 22.5,26.75 L 22.75,26.25 L 23.25,25.75 L 23.75,24.75 L 23.5,24 L 24,23.5 L 25,22 L 25.25,21.75 L 24.75,21.5 L 24,22.25 L 22.5,23 L 22.25,22.25 L 22.5,21.75 L 21.5,20 L 21.25,18.25 L 23.75,18 L 24.25,17 L 25.75,16 L 27.5,14.75 L 29.25,13.25 L 31,12.25 L 32,11.5 L 34,10.5 L 36.25,9.25 L 36.75,8.5 L 36,7.75 L 36.5,7.25 L 37.5,6.75 L 38,7.75 L 39.75,8.00001 L 41.25,7.5 L 42,7.75 L 44.25,6.75 L 44.25,6.5 L 42.5,6.25 L 42.25,6.5 L 42,6.25 L 41.5,6.5 L 41.25,6.25 L 38.5,7 L 37.5,6.5 L 36,6.75 L 33.75,8.00001 L 32.25,7.75 L 31.75,8.25001 L 31.25,8.00001 L 30.75,8.5 L 29.75,9 L 28,9.5 L 28,9.25 L 26.75,9.75 L 26,10.5 L 25.25,11 L 25,11.5 L 24.75,11.25 L 23.25,12.25 L 22.75,12.75 L 18.25,17.25 L 18.5,17.75 L 17.75,17.75 L 17.5,18.25 L 17.75,18.5 L 17.25,19 L 16.75,20 L 16,22.25 L 15.25,23.75 L 14.75,25.25 L 14.25,26.25 L 13.5,28.75 L 13.75,29 L 13.25,31.25 L 13.5,32.75 L 13.25,33 L 13.5,35 L 14.25,38 L 15.25,40.5  z"/>
</g>
<g fill-rule="evenodd" fill="rgb(150,108,38)" stroke="rgb(0,0,0)" stroke-width="0" >
<path d="M 95.75,38.75 L 96.25,38.5 L 95.75,38.25  z"/>
</g>
<g fill-rule="evenodd" fill="rgb(194,186,176)" stroke="rgb(0,0,0)" stroke-width="0" >
<path d="M 92.75,37.5 L 93.75,37.25 L 93.25,36.25 L 92.75,35.75 L 91.75,34.5 L 91,33.75 L 90.75,36.5 L 91.25,37  z"/>
</g>
<g fill-rule="evenodd" fill="rgb(195,189,184)" stroke="rgb(0,0,0)" stroke-width="0" >
<path d="M 80.75,35 L 81,35 L 81.25,35.75 L 81.75,36.25 L 84.75,35.75 L 87.75,35 L 89.25,34.25 L 90,33.5 L 89.75,31.5 L 89.5,29.25 L 89,27.25 L 88.5,25.5 L 88,24.5 L 87,22.5 L 86,20.75 L 85.25,19.75 L 84.25,18.25 L 83.5,17.25 L 78.5,12.25 L 77.25,11.25 L 76.25,10.5 L 75.25,10 L 74.25,9.25 L 73.25,8.75 L 68.25,6.25 L 63,4.5 L 56.75,3.25 L 50,2.5 L 48.5,3 L 44.25,3.25 L 41.75,3.75 L 39.75,4.25 L 33.5,6.25 L 28.5,8.75 L 28,9.25 L 28,9.5 L 29.75,9 L 30.75,8.5 L 31.25,8.00001 L 31.75,8.25001 L 32.25,7.75 L 33.75,8.00001 L 36,6.75 L 37.5,6.5 L 38.5,7 L 41.25,6.25 L 41.5,6.5 L 42,6.25 L 42.25,6.5 L 42.5,6.25 L 44.25,6.5 L 45,6.5 L 45.5,6 L 47,5.75 L 47.25,6 L 47.5,5.75 L 47.75,6 L 48.25,5.75 L 48.25,6.25 L 49.5,5.75 L 50.75,7.25 L 51,8.5 L 51.5,9.25 L 52.5,10 L 53.5,10.75 L 55.5,11.25 L 58,12 L 59.75,12.5 L 60.25,12.25 L 60,13 L 61,13.5 L 63,14 L 64,14.5 L 65.25,14.75 L 65.75,14.5 L 65.75,14.75 L 66.5,15.25 L 67.25,15.5 L 67.25,15.75 L 68.25,16 L 68.5,15.5 L 68.75,16 L 69,16.5 L 70,17.25 L 70.25,17.25 L 70.75,18 L 72,18.5 L 73,19.5 L 73.5,19.75 L 74.5,20.5 L 74.75,20.25 L 75.25,20.5 L 75.5,21.25 L 76.5,23 L 77.25,23.5 L 76.75,24 L 77,24.75 L 77.75,24.5 L 78.25,25 L 78.75,26.25 L 79.5,26.5 L 79.25,27.75 L 79.75,28.25 L 79.5,29.25 L 80,31.25 L 79.75,31.5 L 80,32.25 L 81,33.25 L 80.75,35 L 81.25,35.25 L 81.5,36  z"/>
</g>
<g fill-rule="evenodd" fill="rgb(124,68,23)" stroke="rgb(0,0,0)" stroke-width="0" >
<path d="M 31.25,35 L 32,34.75 L 31.75,34.25 L 31.25,34.75  z"/>
</g>
<g fill-rule="evenodd" fill="rgb(15,11,8)" stroke="rgb(0,0,0)" stroke-width="0" >
<path d="M 1,31 L 1.5,31.25 L 1.75,32 L 3.5,32.75 L 6,33.5 L 6.25,33.25 L 8,33.75 L 8.25,33.5 L 8.75,33.75 L 10.25,33.5 L 11,31 L 12.5,26.5 L 12.75,25 L 12.5,24.5 L 10,25.25 L 8.75,26.25 L 6.5,27.5 L 5.5,28 L 2,28.5 L 0,28.75 L 0,30.25 L 1,30.75 L 1,31 L 1.75,31.75 L 2.25,32.25 L 5.75,33.25 L 6.25,33.5 L 6.5,33.25  z"/>
</g>
<g fill-rule="evenodd" fill="rgb(195,189,184)" stroke="rgb(0,0,0)" stroke-width="0" >
<path d="M 70,33 L 70.5,32.75 L 69.75,31.25 L 69,30.5 L 68.25,29.75 L 68,29.25 L 67.25,29.75 L 67.75,30.25 L 68.5,31.25 L 69.5,32.25 L 70,32.75  z"/>
</g>
<g fill-rule="evenodd" fill="rgb(76,39,12)" stroke="rgb(0,0,0)" stroke-width="0" >
<path d="M 52.5,32 L 53.5,31.75 L 53,31.25 L 52.5,31.5  z"/>
</g>
<g fill-rule="evenodd" fill="rgb(150,108,38)" stroke="rgb(0,0,0)" stroke-width="0" >
<path d="M 93.25,32 L 94.75,31.75 L 95.25,30.75 L 95.75,30.25 L 95.25,29.75 L 94.75,30.25 L 93.25,30.75 L 93,31.5  z"/>
</g>
<g fill-rule="evenodd" fill="rgb(42,26,22)" stroke="rgb(0,0,0)" stroke-width="0" >
<path d="M 0,30.75 L 1,31 L 1,30.75 L 0,30.25 L 0,30.75  z"/>
</g>
<g fill-rule="evenodd" fill="rgb(42,26,22)" stroke="rgb(0,0,0)" stroke-width="0" >
<path d="M 0,28.75 L 2,28.5 L 5.5,28 L 6.5,27.5 L 8.75,26.25 L 10,25.25 L 12.5,24.5 L 12.75,25 L 13,25 L 14.25,23 L 14.75,22 L 15.5,21 L 16.75,19 L 17.5,18.25 L 17.75,17.75 L 18.25,17.25 L 22.75,12.75 L 23.25,12.25 L 24.75,11.25 L 25.25,11 L 26,10.5 L 26.75,9.75 L 28,9.25 L 28.5,8.75 L 33.5,6.25 L 39.75,4.25 L 41.75,3.75 L 44.25,3.25 L 48.5,3 L 50,2.5 L 49.75,1 L 50,0.75 L 49.75,0 L 0,0.25 L 0,26.5 L 3.25,26.75 L 4,27.25 L 0.25,27.5 L 0,27.25  z"/>
</g>
<g fill-rule="evenodd" fill="rgb(71,66,64)" stroke="rgb(0,0,0)" stroke-width="0" >
<path d="M 0,27.25 L 0.25,27.5 L 4,27.25 L 3.25,26.75 L 0,26.5 L 0,27.25  z"/>
</g>
<g fill-rule="evenodd" fill="rgb(28,19,14)" stroke="rgb(0,0,0)" stroke-width="0" >
<path d="M 89,27.25 L 90,27.5 L 90.5,26 L 93,25.5 L 93.5,26 L 95,27 L 95.5,26 L 96,25 L 97.75,25.25 L 98.25,25.75 L 99.25,26.25 L 99.5,26 L 100,26.25 L 100,24.5 L 99.25,24.25 L 99,23.75 L 98.25,23.5 L 98.5,23 L 99.25,23.25 L 99.5,23.75 L 100,23.75 L 99.75,0 L 49.75,0 L 50,0.75 L 49.75,1 L 50,2.5 L 56.75,3.25 L 63,4.5 L 68.25,6.25 L 73.25,8.75 L 74.25,9.25 L 75.25,10 L 76.25,10.5 L 77.25,11.25 L 78.5,12.25 L 83.5,17.25 L 84.25,18.25 L 85.25,19.75 L 86,20.75 L 87,22.5 L 88,24.5 L 88.5,25.5 L 89,27.25  z"/>
</g>
<g fill-rule="evenodd" fill="rgb(76,39,12)" stroke="rgb(0,0,0)" stroke-width="0" >
<path d="M 54.5,26.5 L 55.25,26.25 L 55,25.75 L 54.5,26  z"/>
</g>
<g fill-rule="evenodd" fill="rgb(201,193,185)" stroke="rgb(0,0,0)" stroke-width="0" >
<path d="M 19,25 L 20,24.75 L 19.5,24.25 L 19,24.75  z"/>
</g>
<g fill-rule="evenodd" fill="rgb(131,96,67)" stroke="rgb(0,0,0)" stroke-width="0" >
<path d="M 44.25,6.5 L 44.25,6.75 L 42,7.75 L 41.25,7.5 L 39.75,8.00001 L 38,7.75 L 37.5,6.75 L 36.5,7.25 L 36,7.75 L 36.75,8.5 L 36.25,9.25 L 34,10.5 L 32,11.5 L 31,12.25 L 29.25,13.25 L 27.5,14.75 L 25.75,16 L 24.25,17 L 23.75,18 L 21.25,18.25 L 21.5,20 L 22.5,21.75 L 22.25,22.25 L 22.5,23 L 24,22.25 L 24.75,21.5 L 25.25,21.75 L 25,22 L 24,23.5 L 23.5,24 L 23.75,24.75 L 24.25,24.25 L 24.75,24.5 L 25,24 L 25.75,23.25 L 26,23.75 L 26.5,23.5 L 27,23 L 27.75,22.75 L 28,22.5 L 30,20.75 L 31.25,19.75 L 31.75,19.25 L 32.25,18.75 L 33.75,17.75 L 35.75,16.5 L 37.25,15.75 L 38.75,14.5 L 39.75,13.75 L 43.25,13.25 L 43.5,13.5 L 45.5,13 L 52.5,12.75 L 57.5,13.25 L 62.5,14.5 L 64.25,15 L 64.75,15.5 L 65.75,14.75 L 65.75,14.5 L 65.25,14.75 L 64,14.5 L 63,14 L 61,13.5 L 60,13 L 60.25,12.25 L 59.75,12.5 L 58,12 L 55.5,11.25 L 53.5,10.75 L 52.5,10 L 51.5,9.25 L 51,8.5 L 50.75,7.25 L 49.5,5.75 L 48.25,6.25 L 45,6.75 L 45,6.5 L 44.25,6.5 L 43.75,7 L 42.25,7.5 L 41.5,7.75 L 40.5,7.5 L 39,8.00001 L 38,7.75 L 37.75,7 L 37.25,6.75 L 36.5,7.25 L 36,8.00001 L 36.75,8.75 L 35.75,9.5 L 33.75,10.5 L 31.5,11.75 L 30.5,12.5 L 29.5,13 L 27.75,14.5 L 27.25,15 L 25.5,16 L 25,16.5 L 24,17.5 L 23.5,18 L 21.25,18.5 L 21.75,20.75 L 22.5,22.25 L 22.25,22.75 L 23,23 L 24,22.25 L 25,21.5 L 25.25,22 L 24.5,22.75 L 23.5,24.5  z"/>
</g>
<g fill-rule="evenodd" fill="rgb(150,108,38)" stroke="rgb(0,0,0)" stroke-width="0" >
<path d="M 68.5,24.75 L 69,24.5 L 68.5,24.25  z"/>
</g>
<g fill-rule="evenodd" fill="rgb(51,31,21)" stroke="rgb(0,0,0)" stroke-width="0" >
<path d="M 100,23.75 L 99.5,23.75 L 99.25,23.25 L 98.5,23 L 98.25,23.5 L 99,23.75 L 99.25,24.25 L 100,24.5 L 100,23.75 L 99.25,24  z"/>
</g>
<g fill-rule="evenodd" fill="rgb(51,31,21)" stroke="rgb(0,0,0)" stroke-width="0" >
<path d="M 98.25,23.75 L 99.25,23.5 L 98.75,23 L 98.25,23.25  z"/>
</g>
<g fill-rule="evenodd" fill="rgb(51,31,21)" stroke="rgb(0,0,0)" stroke-width="0" >
<path d="M 95.5,23.25 L 96,23 L 95.5,22.75  z"/>
</g>
<g fill-rule="evenodd" fill="rgb(106,70,16)" stroke="rgb(0,0,0)" stroke-width="0" >
<path d="M 74,22.75 L 74.5,22.5 L 74,22.25  z"/>
</g>
<g fill-rule="evenodd" fill="rgb(150,108,38)" stroke="rgb(0,0,0)" stroke-width="0" >
<path d="M 92.5,20.25 L 93,19.75 L 92.75,19 L 92,19.25 L 92.25,20  z"/>
</g>
<g fill-rule="evenodd" fill="rgb(201,193,185)" stroke="rgb(0,0,0)" stroke-width="0" >
<path d="M 17.75,17.75 L 18.5,17.75 L 18.25,17.25  z"/>
</g>
<g fill-rule="evenodd" fill="rgb(150,108,38)" stroke="rgb(0,0,0)" stroke-width="0" >
<path d="M 67.25,16 L 67.75,16.75 L 69,16.5 L 68.75,16 L 68.25,16 L 67.25,15.75 L 67.25,16  z"/>
</g>
<g fill-rule="evenodd" fill="rgb(131,96,67)" stroke="rgb(0,0,0)" stroke-width="0" >
<path d="M 66.5,15.25 L 66.5,15.75 L 67.25,16 L 67.25,15.75 L 67.25,15.5 L 66.5,15.25  z"/>
</g>
<g fill-rule="evenodd" fill="rgb(131,96,67)" stroke="rgb(0,0,0)" stroke-width="0" >
<path d="M 68.25,16 L 68.75,16 L 68.5,15.5  z"/>
</g>
<g fill-rule="evenodd" fill="rgb(106,70,16)" stroke="rgb(0,0,0)" stroke-width="0" >
<path d="M 82.5,15.75 L 83,15.5 L 82.5,15.25  z"/>
</g>
<g fill-rule="evenodd" fill="rgb(131,96,67)" stroke="rgb(0,0,0)" stroke-width="0" >
<path d="M 49.25,13.25 L 49,13.25 L 45,13.75 L 45.25,15 L 46,14.75 L 46.5,15 L 47,14.75 L 48,14 L 48,13.75 L 49,14 L 49.25,13.25 L 45.75,13.5 L 45,14  z"/>
</g>
<g fill-rule="evenodd" fill="rgb(195,189,184)" stroke="rgb(0,0,0)" stroke-width="0" >
<path d="M 24.75,11.25 L 25,11.5 L 25.25,11 L 24.75,11.25  z"/>
</g>
<g fill-rule="evenodd" fill="rgb(131,96,67)" stroke="rgb(0,0,0)" stroke-width="0" >
<path d="M 56.25,9.75 L 57,9.5 L 57.25,8.75 L 56.5,8.25001 L 56,8.75  z"/>
</g>
<g fill-rule="evenodd" fill="rgb(167,134,107)" stroke="rgb(0,0,0)" stroke-width="0" >
<path d="M 45,6.5 L 45,6.75 L 48.25,6.25 L 48.25,5.75 L 47.75,6 L 47.5,5.75 L 47.25,6 L 47,5.75 L 45.5,6 L 45,6.5  z"/>
</g>
<g fill-rule="evenodd" fill="rgb(131,96,67)" stroke="rgb(0,0,0)" stroke-width="0" >
<path d="M 0.5,4.25 L 1.75,4 L 2,3.25 L 1,3 L 0.5,4  z"/>
</g>
<g fill-rule="evenodd" fill="rgb(131,96,67)" stroke="rgb(0,0,0)" stroke-width="0" >
<path d="M 28,3.25 L 30.25,3 L 30.75,1.50001 L 29.75,1 L 28,1.25 L 27.5,2.75  z"/>
</g>
</svg>
