<?xml version="1.0" encoding="utf-8"?>
<!-- Generator: Adobe Illustrator 13.0.2, SVG Export Plug-In . SVG Version: 6.00 Build 14948)  -->
<!DOCTYPE svg PUBLIC "-//W3C//DTD SVG 1.0//EN" "http://www.w3.org/TR/2001/REC-SVG-20010904/DTD/svg10.dtd">
<svg version="1.0"
	 id="Layer_1" xmlns:inkscape="http://www.inkscape.org/namespaces/inkscape" xmlns:svg="http://www.w3.org/2000/svg"
	 xmlns="http://www.w3.org/2000/svg" xmlns:xlink="http://www.w3.org/1999/xlink" x="0px" y="0px" width="100.391px"
	 height="75.391px" viewBox="-0.195 -0.195 100.391 75.391" enable-background="new -0.195 -0.195 100.391 75.391"
	 xml:space="preserve">
<desc>Clipart software</desc>
<rect x="-0.195" y="-0.195" fill="none" stroke="#0000FF" stroke-width="0.1004" width="100.391" height="75.391"/>
<g>
	<path fill="#FEFEFE" d="M0,75l100-0.195L99.805,0L0,0.195V75z"/>
</g>
<g>
	<path fill="#210F04" d="M67.774,70.898l5.469-0.391l1.367-0.586l-0.586-0.586l-0.781-0.195l0.195-0.391l1.758-0.781l5.469-0.391
		l1.758-0.586l0.391-0.391l-1.953-0.391l0.586-2.539l-0.195-3.906l-0.391-0.781l-0.586-1.172l-0.977-0.977l-1.172-0.391
		l-1.172,0.195l-0.586-1.758l-1.172-0.977L74.61,53.32l0.586-1.758L75,49.023l-0.977-1.758l-0.586-0.781l-1.172-1.367l0.195-0.586
		l0.977-0.391l0.781-0.977l0.391-1.563l-0.195-1.563l-0.586-0.781l-0.391-0.586l0.586-0.391l-0.195-0.586l-1.563-0.977l-1.953-0.391
		l-2.539,0.195l-1.172,0.781l-0.781,0.977l-0.391,1.172l-0.391,1.172l-0.781,0.195l-0.391-1.367l-1.563-1.563L61.719,37.5
		l0.391-0.391l0.781-0.391l0.781-0.586l0.977-0.781l0.781-0.781l0.586-0.781l0.781-1.758l0.391-1.563l0.195-3.906l-1.172-3.711
		l-1.172-2.148l-0.391-0.391l-0.195-0.586l3.32-0.195l2.734,0.781l0.195-0.391l-1.172-0.586l-5.469-0.391l1.563-0.781l2.344-0.391
		l1.758-0.195l-0.391-0.391l-1.563-0.195l-1.953,0.586l-1.367,0.586l-0.977,0.586l-0.195-0.391l0.391-0.391l0.781-0.586l1.563-0.781
		l2.344-0.781l0.391-0.391l-1.367-0.195l-1.367,0.586l-1.172,0.781l-0.977,0.781l-0.781,0.586l-0.781-0.195l-0.391-0.391
		l-0.586-0.586l2.148-1.172l1.172-0.781l1.367-1.563l0.195-1.563l-1.172-0.977l-1.172-0.391l-2.344-0.586l-4.297,0.195l-0.977,0.391
		l-0.781-1.758l-0.781-0.586l-1.953-0.391l-3.516,0.195l-3.32,1.563l-0.586,0.586l-0.781,0.391l-0.391,0.781l-1.172,1.172
		l-0.586,1.367l-0.586,1.367l-0.781,0.391l-0.391-0.391l-0.391-1.367l-0.391-0.781l-0.391-0.781L37.5,10.352l-1.367-0.586
		l0.195,0.586l0.977,0.781l1.172,0.781l0.781,0.977l0.586,1.367l0.195,0.586l-0.586-0.195l-0.195-0.586l-1.563-1.367l-1.367-0.586
		l-1.563-0.391l-0.586,0.195l0.586,0.586l1.758,0.391l0.781,0.391l1.172,0.781l0.781,0.977l-0.391,0.195l-0.781-0.586l-2.344-0.781
		l-2.734,0.195l0.195,0.391l3.32,0.195l2.148,0.977l0.586,0.586l-0.195,0.781L37.5,18.555l-0.586,0.781l-0.977,1.563l-0.781,1.563
		l-0.586,1.953l-0.391,2.344l0.195,3.32l0.977,2.93l0.586,1.172l2.148,2.344l-0.195,0.391l-1.758,1.758l-0.977,1.953l-0.195,1.758
		l0.195,0.391l-1.367,1.172l-1.172,1.172l-0.586,0.781l-0.977,2.148l-0.586,2.344l-0.195,3.906l0.195,0.781l-0.977-0.195
		l-0.781-0.391L25,54.297l-1.758,0.586l-0.391,0.391l-1.953,1.953l-0.977,1.953l-0.391,1.563l-0.195,2.344l0.586,1.758l0.781,1.172
		l1.172,1.367l0.195,0.391l-1.758,0.586l-0.391,0.391l0.781,0.391l4.102,0.586l4.102,0.195l4.297-0.391l1.172-0.391l2.734-0.195
		l1.758-0.586l0.781-0.391l3.516,0.586l1.367-0.195l1.953,0.586l1.172,0.391L50,69.141l0.781-0.391l0.781-0.195l2.539,0.195
		l2.734-0.391l4.688-0.195l1.367,0.391l0.781,0.586l2.148,0.977l1.758,0.586L67.774,70.898z"/>
</g>
<g>
	<path fill="#A86514" d="M67.774,70.313l2.148-0.195l0.781-0.391l1.172-0.781l0.195-0.586l0.391-0.391l0.586-1.953l0.195-2.148
		l-0.781-2.539l-0.391-0.391l-1.172-1.172l-1.367-0.781l-1.172-0.391l-1.758,0.195l-1.172,0.586l-0.977,1.172l-0.586,0.781
		l-0.977,0.781l-0.586,0.195l-0.195-0.391l-0.586,0.391l0.195-0.781l1.758-0.391l0.391-0.781l0.586-0.586l0.781-0.781l1.367-0.781
		l1.953-0.391l2.148,0.781l0.391,0.391l1.367,1.367l0.977,1.953l0.195,3.906l-0.391,1.758l0.977-0.195l0.586-0.586l0.586-0.586
		l0.586-1.367l0.195-1.953l-0.781-2.344l-0.977-1.563l-0.781-1.172l-1.953-1.758l-0.977,0.195l-1.953,0.586l-2.344-0.195
		l3.906-0.586l2.148-1.172l1.563-1.758l0.391-1.172l0.195-2.148l-0.391-1.367l-0.977-1.563l-0.586-0.781l-1.172-1.172l-0.977-0.781
		l-0.781-0.391l-1.367-0.781l0.195-0.391l1.172-0.195l-0.195-0.391l-2.344-0.586l0.781-0.586l-2.734-0.195l-1.172,0.586l0.391,2.148
		l-0.391,0.977l-1.172,1.172l-1.563,0.781l-0.195,0.391l0.586,1.172L61.524,50l-0.586,1.172l-0.195,1.563l-0.586,0.781l-0.195,0.977
		l-0.195,0.586l0.781,0.586l1.367,0.195l-0.195,0.781l0.195,0.391l-0.977-0.195l-1.953-1.953l-0.586-0.586l-0.977-0.781
		l-2.148-0.195l-0.781,0.391l-0.391,0.391l-0.781,0.781l-0.977,1.953l-0.391,1.953l0.195,2.539l0.391,0.781l0.586,0.586l0.781,0.586
		l2.93,0.195l1.172-0.586l1.172-0.781l0.781-0.391L59.766,62.5l-1.172,1.172l-1.563,1.758l-0.586,1.563l1.172,0.391l5.078,0.391
		l1.367,0.781l2.344,1.172L67.774,70.313z"/>
</g>
<g>
	<path fill="#D17405" d="M28.516,69.336l2.93-0.195l1.367-0.781l0.586-0.586l-0.195-0.195l-1.953,0.586l-0.195-0.391l0.977-0.391
		l0.195-0.391v-0.195l-1.758,0.195l0.195-0.391l1.172-0.586v-0.391l-2.148,0.195l0.195-0.391l1.563-0.586v-0.391l-2.344-0.195
		l0.195-0.391h1.367v-0.391l-1.367-0.586l0.195-0.391h0.781v-0.391l-0.781-0.195l0.195-0.391h0.781v-0.391l-0.391-0.781l0.977-0.195
		L30.86,59.57h0.391V59.18l-1.172-0.195l-0.781,0.586l-1.367,0.781l0.195,0.781l-1.172,0.781l-0.195,0.391l0.195,0.391l-0.195,0.586
		l-0.391,0.391l-0.195,1.172l-0.586,0.195l-0.195-2.148l0.195-0.977l-0.391-0.195L24.805,62.5l-0.781,0.586L23.828,62.5l0.391-1.953
		l1.367-1.367l3.32-0.391l1.172-0.391l1.172-0.391l-0.195-1.367l-0.781-0.195l-0.781,0.391h-0.391l-0.195,0.195l-0.195,0.391
		l-0.195,0.391l-1.172,0.195v-0.195l-0.391-0.195l0.195-0.586l-0.195-0.391l-0.195-0.391l-0.391-0.391l-0.195-0.586l-0.781-0.391
		l-0.586,0.586l-0.195,0.391l-0.195,0.586v0.391l0.195,0.391l-0.391,0.391l-0.195,1.172l-0.781,0.195l-1.563-0.391l-0.586-0.195
		l-0.586,1.172l0.195,1.172l0.391,0.391l0.391,0.391l0.586,0.195h0.391l0.391,0.195l0.195,0.586l-1.953,0.977l-0.586,0.586
		l0.391,1.367l0.391,0.391l0.391,0.586l0.195,0.195l0.391,0.195v0.195l0.977,0.781l2.148,0.977l1.563,0.391L28.516,69.336z"/>
</g>
<g>
	<path fill="#D17405" d="M47.266,68.75l2.344-0.195l0.977-0.781l0.586-1.172l0.195-0.977l-0.586-1.563l-0.195-0.391l0.391,0.195
		v0.195l0.391,0.391l0.391,1.563l0.195,1.758l1.563-0.195l0.586-0.586l0.586-1.758l-0.586-1.172l-1.172-0.586L52.149,62.5
		l-0.586-1.172l-0.391-2.93l-1.563-0.195l-2.539,0.977L46.68,59.57l-0.195-0.391l0.977-0.781l0.195-0.195v-0.195l-1.367,0.586
		l-0.781,0.586h-0.195l-0.391-0.195l-0.977-0.195l-0.586,0.195l-0.586-0.586l0.391-0.391l0.781-0.391h0.195l0.391-0.391l0.195-0.391
		h0.195l1.172-0.391l0.195-0.586l0.781-0.391l0.391-0.195l0.781-0.781l0.391-0.195l-0.195-0.391l-0.195-0.391h-0.391l-0.586,0.195
		v-0.195h-0.391h-0.586h-0.391l-0.391,0.391h-0.195h-0.391l-0.391,0.391l-0.195-0.195l-0.391,0.195l-0.391-0.195l0.195-0.586
		l0.195,0.195h0.391l0.195-0.977h0.391l0.391-0.195l0.195-0.391h0.195l0.391-0.195l0.195-0.391l0.391-0.391l0.195-0.586l0.391-0.781
		l-1.172-0.391l-0.391,0.195l-0.781,0.195L44.727,50l-0.195,0.391l-0.391-0.195l-0.391,0.391l-0.391,0.195l-0.781,0.195
		l-0.195,0.391l-0.781,0.195l-0.195,0.391l-0.781-0.195l0.391-0.586l-0.195-0.391L41.602,50l0.391-0.391l0.195-0.391h0.195v-0.391
		l0.195-0.586v-0.195l-0.586-0.391l-0.977,0.781l-0.977,0.586L39.844,50l-0.781,0.781l-0.195,1.172l-0.781,0.391l-0.391-0.195
		l0.195-0.195l-0.195-2.344l1.563-1.563l0.781-0.391l1.172-0.391l2.539-0.195l0.586,0.195l0.195-0.586l-0.391-0.391l-0.781-0.977
		l-1.367-0.391v-0.195l-0.391-0.195l0.195-0.391l0.195,0.195l0.586,0.195l0.391-0.391l2.148,1.953l0.586,0.195v0.195l0.195,0.195
		l1.563,0.977l1.367,0.781l0.781,0.391L50,49.219l0.195,1.367l0.977,0.977l1.172,0.391l1.563-0.781l0.781-0.586l0.781,1.758
		l0.781,0.391l1.563,0.391l1.172,0.586l0.781-0.391l0.586-1.367l0.195-0.781l-0.781-1.563l-0.586-0.586l-1.367-0.781l0.977-0.195
		l0.391,0.391l1.563,1.367l0.586-1.172l-0.781-1.758l-0.977-0.781l-1.563-0.781l-0.781-0.391l0.781-0.391l2.148,0.391l1.367,0.586
		l1.563-0.391l0.781-1.758l-0.195-1.367L62.5,40.82l-1.172-0.586l-1.563-0.391l-1.758,0.195l-1.758,0.977l-0.781,0.977l-0.391,0.391
		h-0.195l-1.367,1.172l-1.953,0.391l-1.367-0.391l-1.172-0.781l-0.391-0.391l-0.977-0.781l-0.195,0.195l-0.195-0.586l-0.586-0.586
		l0.391-0.195l0.195,0.195l0.195-0.391l-0.586-0.586l0.391-0.195l0.586,0.781l0.195,1.172l0.781,0.391l0.781,0.586l1.367,0.586
		l1.172,0.391l1.953-0.977l0.586-1.172l0.195-1.563l0.391-0.781v-0.195l-0.391-0.195l-1.367,0.391l0.195-0.586l0.586-0.195
		l1.367-0.781l0.391-0.391l2.148-1.953l0.391,0.195l-1.758,1.758l0.195,0.195l1.953-0.586l0.391-0.391l0.391-0.781l0.195-0.391
		l0.391-0.195l0.195,0.195l0.586,0.195v0.195l1.172,0.586l0.195,0.195l0.586-0.781l-0.195-1.563l-0.195-0.391h0.195l0.195-0.391
		l1.758-0.391l0.195-0.391l-0.195-0.195l-0.586-0.195l-0.195-0.391l-0.977-0.781l-1.172,1.172l0.195,0.195h-0.391l-1.367,1.172
		l-1.758,0.586l-0.781-0.781l-0.586-0.586l-1.172-0.586l-0.586-0.195v0.195l-0.391,0.195l-0.781,0.586l-0.781,0.586l-1.953,0.781
		l-3.516,0.391l-2.539-0.391l-1.953-1.953l-0.391-0.781l-0.391-0.977l-1.563,0.391l-0.195,0.195l-0.586-0.195l-0.195,0.586
		l-0.391,0.195l-0.586-0.781l-0.781-0.781l-0.391-1.367h-0.391l-0.391,0.391l-1.172,1.172l-0.195,0.195l-0.195,0.195l-0.195,0.586
		l0.977,0.781h0.391l0.391-0.195l0.391,0.391l0.977,0.195v0.195h0.195l0.586-0.195l0.195,0.781h-0.195l-0.195,0.391v0.391
		l-0.195,0.586h-0.195v0.195l-0.195,0.586l0.195,0.781l0.391,0.195l0.586-0.391l0.586,0.195l0.195-0.195l0.195-0.391h0.391
		l0.391-0.195l0.781-0.195l0.195-0.195l0.195-0.391l0.781,0.195v0.391v0.391l0.195,0.586v0.391l0.391,0.391l-0.391,0.195v0.391
		l1.172,0.586l1.172-0.586l0.195-0.781l0.391-0.586l0.586,0.195l0.391,0.195v0.195l0.781,0.586l0.195,0.391l0.586,0.195
		l-0.391,0.391l-0.195-0.195l-4.883,0.586l-3.32-0.586l-1.172-0.586l-0.586,0.586l-0.195,0.391l0.195,0.195l0.195,0.586
		l-0.195,0.195l0.391,0.391l0.391,0.195l-0.391,1.172h0.391l0.586-0.195v0.781l0.391,0.195l0.391,0.195l-0.195,0.977l-0.391-0.195
		l-0.391-0.195l-0.391,0.195l-0.195-0.391h-0.391l-0.195,0.391h-0.391h-0.391L37.5,43.164l-0.391-0.391h-0.391l-0.391,0.391
		l-0.977,0.195l-0.195,0.586l0.586,0.195l0.391,0.391l-0.195,0.195l0.195,0.781l0.391-0.195l0.195,0.391l-0.195,0.195l0.195,0.195
		l0.391,0.391v0.195l0.195,0.391l0.391,0.781l0.195,0.391l-0.781,0.781l-0.781-0.195l-0.391,0.195v-0.195l-0.391-0.195l-0.781,0.391
		l-0.391-0.195l-0.781,0.391l-0.195,0.195l-0.195-0.391l-0.781,0.391l-0.391-0.195l-0.391,0.391L31.25,50l0.195,0.391l0.391,0.391
		v0.586h0.391l0.781-0.391v0.781h0.391l0.391-0.195l0.195,0.391l0.586,0.195v0.195l0.391,0.391l0.586-0.195l0.195,0.391l0.586,0.195
		l-0.195,0.977h-0.391l-0.391,0.195l-0.781-0.195l-0.195,0.391l-1.172,0.195l-0.391-0.195l-0.391,0.781h-0.195l-0.391,0.195
		l-0.195,0.977l0.781,0.391l0.195-0.195l0.586,0.586h0.391l0.391-0.195l0.391,0.586h0.391l0.391-0.195l0.195,0.391h0.391
		l0.586,0.195l0.195,1.367l0.781,0.781l0.586,0.781l0.586,1.367l0.195,2.539l-0.586,1.758l2.734,0.391l0.391,0.391l1.367,0.586
		l1.953-0.195l0.586-0.586l0.391-0.391l0.781,1.563L47.266,68.75z"/>
</g>
<g>
	<path fill="#210F04" d="M67.969,68.75l1.953-0.195l0.781-0.586l0.391-0.391l0.391-0.781l0.391-1.172l0.195-1.367L71.68,62.5
		l-0.586-0.781l-0.391-0.781l-0.586-0.195l-0.781-0.391l-1.563,0.195l-0.391,0.391l-0.781,0.781L66.211,62.5l-0.391,1.953
		l0.391,2.539l0.391,0.391l1.172,1.172L67.969,68.75z"/>
</g>
<g>
	<path fill="#E4B5A3" d="M68.36,68.359l1.367-0.195l1.172-1.172l0.586-1.953l-0.195-1.758l-0.781-1.563l-0.781-0.586l-1.563-0.195
		l-1.367,1.367l-0.391,1.563l0.195,2.539l0.781,1.172l0.781,0.586L68.36,68.359z"/>
</g>
<g>
	<path fill="#A86514" d="M33.203,67.578l0.195,0.195l0.391-0.391l-0.391-0.195L33.203,67.578z"/>
</g>
<g>
	<path fill="#A86514" d="M54.883,67.383l0.391-0.195l-0.195-0.195L54.883,67.383z"/>
</g>
<g>
	<path fill="#A86514" d="M76.563,67.383l2.148-0.391l0.391-0.391l0.781-0.391l0.391-0.781l0.391-0.781l0.391-2.734l-0.391-2.148
		l-0.391-0.781l-0.586-1.172l-0.781-0.586l-1.172-0.195l-0.781,0.391l-1.758,1.953l1.172,2.344l0.391,2.734l-0.391,1.563
		l-0.586,1.172L76.563,67.383z"/>
</g>
<g>
	<path fill="#D17405" d="M55.274,67.188l0.391-0.391l0.586-1.367l-0.195-1.367l-1.172,0.195l0.195,2.734L55.274,67.188z"/>
</g>
<g>
	<path fill="#A86514" d="M22.071,66.992h0.195v-0.195l-0.391-0.195L22.071,66.992z"/>
</g>
<g>
	<path fill="#A86514" d="M32.227,66.992l0.781-0.391l-0.586-0.195l-0.195,0.391V66.992z"/>
</g>
<g>
	<path fill="#A86514" d="M21.68,66.602h0.195l-0.195-0.195V66.602z"/>
</g>
<g>
	<path fill="#D17405" d="M74.805,66.406l0.391-0.195l-0.391-0.195V66.406z"/>
</g>
<g>
	<path fill="#A86514" d="M31.836,66.016l0.781-0.391l-0.586-0.195l-0.195,0.195V66.016z"/>
</g>
<g>
	<path fill="#A86514" d="M31.446,64.844l0.781-0.195l-0.781-0.195V64.844z"/>
</g>
<g>
	<path fill="#A86514" d="M50.977,64.063v-0.195l-0.391-0.195l0.195,0.391H50.977l-0.195-0.391L50.977,64.063z"/>
</g>
<g>
	<path fill="#A86514" d="M30.664,63.867l0.586-0.195l-0.586-0.195V63.867z"/>
</g>
<g>
	<path fill="#A86514" d="M26.563,62.695h0.391l-0.195-0.391L26.563,62.695z"/>
</g>
<g>
	<path fill="#D17405" d="M56.055,62.695l0.391-0.195l-0.195-0.195h-0.195V62.695z"/>
</g>
<g>
	<path fill="#A86514" d="M30.274,62.5l0.391-0.195l-0.391-0.195V62.5z"/>
</g>
<g>
	<path fill="#210F04" d="M55.274,62.5l0.781-0.195h0.195l1.367-1.563l0.586-2.344l-0.195-1.953l-0.391-0.781l-0.977-0.781
		l-1.367-0.195l-1.563,1.563l-0.586,1.953l-0.195,1.953l0.391,0.781l0.586,0.781l0.781,0.586L55.274,62.5z"/>
</g>
<g>
	<path fill="#A86514" d="M22.071,62.109l0.391-0.195v-0.195h-0.391V62.109z"/>
</g>
<g>
	<path fill="#A86514" d="M25.196,61.719l0.391,0.195l0.195-0.391l-0.391-0.195L25.196,61.719z"/>
</g>
<g>
	<path fill="#D17405" d="M52.539,61.719l0.391-0.195l-0.391-0.195V61.719z"/>
</g>
<g>
	<path fill="#E4B5A3" d="M54.688,61.719l1.563-0.195l0.977-0.977l0.586-1.758l-0.195-2.148l-0.781-1.172l-1.172-0.391l-0.781,0.391
		l-0.586,0.781l-0.586,1.367l-0.195,2.539l0.586,1.172L54.688,61.719z"/>
</g>
<g>
	<path fill="#A86514" d="M30.469,61.523l0.781-0.195l-0.781-0.195V61.523z"/>
</g>
<g>
	<path fill="#A86514" d="M25.977,60.938l0.391-0.391l-0.391-0.195l-0.195,0.391L25.977,60.938z"/>
</g>
<g>
	<path fill="#A86514" d="M31.25,60.547l0.586-0.195l-0.586-0.195V60.547z"/>
</g>
<g>
	<path fill="#A86514" d="M31.25,59.57l0.586-0.195L31.25,59.18V59.57z"/>
</g>
<g>
	<path fill="#A86514" d="M44.922,58.984l0.391,0.195l0.195-0.781L44.922,58.984z"/>
</g>
<g>
	<path fill="#A86514" d="M74.805,58.789l1.367-1.367l0.195-1.172l-0.391-0.781l-1.172-1.172l-0.586-0.195l-1.172,1.172l-0.781,0.586
		l0.195,0.586l0.781,0.391l0.781,0.977l0.391,0.391L74.805,58.789z"/>
</g>
<g>
	<path fill="#A86514" d="M34.375,58.203l0.391-0.195v-0.391h-0.391V58.203z"/>
</g>
<g>
	<path fill="#A86514" d="M35.352,58.203l0.391-0.195v-0.195h-0.391V58.203z"/>
</g>
<g>
	<path fill="#A86514" d="M47.656,58.203l0.586-0.195l-0.586-0.195v0.195V58.203z"/>
</g>
<g>
	<path fill="#A86514" d="M27.149,57.031l-0.195,0.586l0.391,0.195l0.195-0.781H27.149z"/>
</g>
<g>
	<path fill="#A86514" d="M28.516,57.813l0.195-0.391L28.516,57.813z"/>
</g>
<g>
	<path fill="#A86514" d="M33.203,57.813l0.391-0.195v-0.391h-0.391V57.813z"/>
</g>
<g>
	<path fill="#D17405" d="M49.219,57.813l2.344-0.391l0.586-1.953l0.195-0.586l-1.563-0.391l-0.391-0.391l-0.586-0.391l-0.586,2.734
		l-0.391,0.781l0.195,0.391L49.219,57.813z"/>
</g>
<g>
	<path fill="#A86514" d="M44.141,57.617l0.391-0.195v-0.195L44.141,57.617z"/>
</g>
<g>
	<path fill="#D17405" d="M64.063,57.617l0.391-0.195l-0.391-0.195V57.617z"/>
</g>
<g>
	<path fill="#A86514" d="M44.531,57.227l0.391-0.391h-0.195L44.531,57.227z"/>
</g>
<g>
	<path fill="#A86514" d="M23.828,57.031l0.586-0.195v-0.391l-0.586,0.195V57.031z"/>
</g>
<g>
	<path fill="#A86514" d="M28.711,57.031h0.195l0.195-0.195l-0.391-0.195V57.031z"/>
</g>
<g>
	<path fill="#210F04" d="M64.844,57.031l0.391-0.195l-0.391-0.195V57.031z"/>
</g>
<g>
	<path fill="#A86514" d="M26.758,56.25l0.195,0.391l0.195-0.391H26.758z"/>
</g>
<g>
	<path fill="#A86514" d="M24.414,55.859h0.195l0.195-0.391l-0.391,0.195V55.859z"/>
</g>
<g>
	<path fill="#A86514" d="M47.071,55.664l0.391-0.195v-0.195l-0.391,0.195V55.664z"/>
</g>
<g>
	<path fill="#A86514" d="M31.836,55.469l0.391-0.195l-0.195-0.391L31.836,55.469z"/>
</g>
<g>
	<path fill="#210F04" d="M68.75,55.273l2.344-0.195l1.758-0.977l0.195-1.367l-0.781-0.586l-1.172-0.391l-0.977-0.195l-1.758,0.586
		l-0.781,0.977l-0.195,1.172l0.977,0.781L68.75,55.273z"/>
</g>
<g>
	<path fill="#A86514" d="M35.352,54.297l0.391-0.195L35.352,54.297z"/>
</g>
<g>
	<path fill="#210F04" d="M43.946,53.711l-0.195-0.195l-0.195,0.586l0.391,0.195V53.711l-0.391-0.195L43.946,53.711z"/>
</g>
<g>
	<path fill="#A86514" d="M43.946,54.297l0.391-0.195v-0.391h-0.391V54.297z"/>
</g>
<g>
	<path fill="#210F04" d="M44.336,54.102l0.195,0.195l0.391-0.391v-1.172h-0.391l-0.195,0.977V54.102z"/>
</g>
<g>
	<path fill="#A86514" d="M48.633,54.297l0.391-0.391l-0.391-0.195l-0.195,0.195L48.633,54.297z"/>
</g>
<g>
	<path fill="#A86514" d="M44.922,53.906h0.391v-1.367l-0.391,0.195V53.906z"/>
</g>
<g>
	<path fill="#210F04" d="M45.313,53.906h0.195l0.391-0.391l-0.195-1.367h-0.195l-0.195,0.391V53.906z"/>
</g>
<g>
	<path fill="#A86514" d="M45.899,53.516h0.391l-0.195-1.563l-0.391,0.195L45.899,53.516z"/>
</g>
<g>
	<path fill="#A86514" d="M46.875,53.516h0.391l-0.195-0.586L46.875,53.516z"/>
</g>
<g>
	<path fill="#A86514" d="M47.852,53.516h0.391l-0.195-0.391L47.852,53.516z"/>
</g>
<g>
	<path fill="#FEFEFE" d="M69.727,53.516l1.953-0.195l0.195-0.586l-0.977-0.391l-1.563,0.391l0.195,0.586L69.727,53.516z"/>
</g>
<g>
	<path fill="#A86514" d="M33.789,52.93l0.391-0.195l0.391-0.391v-0.195l-0.586-0.195L33.789,52.93z"/>
</g>
<g>
	<path fill="#A86514" d="M32.813,52.539l0.391-0.195l0.195-0.586h-0.391L32.813,52.539z"/>
</g>
<g>
	<path fill="#A86514" d="M37.891,51.953l-0.195,0.195l0.391,0.195L37.891,51.953z"/>
</g>
<g>
	<path fill="#A86514" d="M31.836,51.758l0.391-0.195v-0.195h-0.391V51.758z"/>
</g>
<g>
	<path fill="#A86514" d="M46.485,51.758l0.391-0.195l-0.195-0.391l-0.391,0.391L46.485,51.758z"/>
</g>
<g>
	<path fill="#210F04" d="M67.774,51.563l0.977-0.195l0.391-1.172l-0.195-0.977l-0.781-0.391l-0.391,0.391L67.383,50l0.195,1.172
		L67.774,51.563z"/>
</g>
<g>
	<path fill="#210F04" d="M71.094,51.172l0.781-0.391l-0.195-2.148l-0.781-0.195l-0.391,0.391l-0.195,1.367L71.094,51.172z"/>
</g>
<g>
	<path fill="#A86514" d="M43.36,50.781l0.391-0.195l0.391-0.391L43.164,50L43.36,50.781z"/>
</g>
<g>
	<path fill="#A86514" d="M44.531,50h0.195l0.195-0.195l-0.391-0.391l-0.195,0.391L44.531,50z"/>
</g>
<g>
	<path fill="#A86514" d="M45.703,49.609l0.391-0.195l-0.391-0.391l-0.195,0.391L45.703,49.609z"/>
</g>
<g>
	<path fill="#A86514" d="M33.203,49.023l0.195,0.391l0.195-0.195l-0.195-0.781L33.203,49.023z"/>
</g>
<g>
	<path fill="#A86514" d="M42.383,49.219l0.586-0.195l-0.586-0.195V49.219z"/>
</g>
<g>
	<path fill="#A86514" d="M34.375,48.828l0.391,0.195l0.195-0.781l-0.391,0.195L34.375,48.828z"/>
</g>
<g>
	<path fill="#A86514" d="M35.547,48.633l0.391,0.195l-0.195-0.391L35.547,48.633z"/>
</g>
<g>
	<path fill="#A86514" d="M42.578,48.242l0.391-0.195h-0.391V48.242z"/>
</g>
<g>
	<path fill="#A86514" d="M36.914,47.266l0.391-0.195L37.11,46.68l-0.391,0.391L36.914,47.266z"/>
</g>
<g>
	<path fill="#A86514" d="M45.703,46.68h0.195l-0.195-0.195V46.68z"/>
</g>
<g>
	<path fill="#A86514" d="M45.313,46.484h0.391v-0.195l-0.586-0.195L45.313,46.484z"/>
</g>
<g>
	<path fill="#A86514" d="M36.328,46.289l0.391-0.195l-0.195-0.195L36.328,46.289z"/>
</g>
<g>
	<path fill="#A86514" d="M35.156,46.094l0.586-0.195l-0.195-0.391L35.156,46.094z"/>
</g>
<g>
	<path fill="#A86514" d="M35.156,44.922l0.781-0.195l0.195-0.195l-0.391-0.391l-0.391,0.391L35.156,44.922z"/>
</g>
<g>
	<path fill="#A86514" d="M41.992,44.336l-0.195-0.195l-0.195,0.391l0.391,0.195V44.336l-0.391-0.195L41.992,44.336z"/>
</g>
<g>
	<path fill="#A86514" d="M70.899,44.336l1.563-0.195l1.172-0.781l0.195-0.977l0.195-2.148l-0.391-0.391l-0.391-0.781l-0.781-0.586
		l-0.195-0.391l0.977-0.195l-0.781-0.586l-2.344-0.391l-1.953,0.195l-1.367,0.781l-0.195,0.586l-0.391,0.391l-0.586,1.367
		l2.148,0.195l0.195-0.586l0.781-0.781l1.367-0.391l1.367,0.391l0.391,0.391l0.781,1.367l-0.195,1.563l-1.172,0.977l-1.367,0.195
		l0.781,0.586L70.899,44.336z"/>
</g>
<g>
	<path fill="#210F04" d="M39.258,42.383l0.195,0.391l0.391-0.195l0.391,0.195l0.391,0.195l0.195-0.977l-0.391-0.195l-0.391,0.586
		v-0.781V40.82l-0.586,0.195L39.258,42.383l0.391,0.391l0.586-0.195L39.258,42.383z"/>
</g>
<g>
	<path fill="#A86514" d="M36.719,42.773h0.391v-0.586h-0.391V42.773z"/>
</g>
<g>
	<path fill="#A86514" d="M37.891,42.773h0.391l-0.195-0.586L37.891,42.773z"/>
</g>
<g>
	<path fill="#D17405" d="M68.36,42.773l0.391-0.195l-0.391-0.195V42.773z"/>
</g>
<g>
	<path fill="#E4B5A3" d="M71.094,42.578l0.781-0.391l0.391-0.781l-0.391-1.367l-1.172-0.586l-1.953,0.195L68.36,40.43l1.172,0.586
		l-0.195,0.781l1.367,0.391L71.094,42.578z"/>
</g>
<g>
	<path fill="#A86514" d="M38.867,42.383h0.391l0.195-1.367h-0.391L38.867,42.383z"/>
</g>
<g>
	<path fill="#A86514" d="M40.039,41.602v0.781l0.391-0.586L40.039,41.602z"/>
</g>
<g>
	<path fill="#A86514" d="M54.883,42.383h0.195l0.391-0.391l-0.586,0.195V42.383z"/>
</g>
<g>
	<path fill="#D17405" d="M36.719,42.188h0.391l-0.195-0.391L36.719,42.188z"/>
</g>
<g>
	<path fill="#A86514" d="M47.266,41.211l0.195,0.586l0.195-0.195L47.266,41.211z"/>
</g>
<g>
	<path fill="#A86514" d="M36.914,41.406l0.391-0.195l0.195-1.172l-0.391,0.195L36.914,41.406z"/>
</g>
<g>
	<path fill="#A86514" d="M55.274,40.82l0.586-0.195l0.781-0.586l0.781-0.391l1.953-0.391l1.953,0.195l0.781,0.391l0.781,0.391
		l0.391,0.391l0.195-0.977l-0.586-0.781l-1.563-0.781l-2.93,0.195l0.195-0.977L57.617,37.5l-1.172,0.977l-0.391,0.391l-0.391,0.781
		l0.391,0.195l-0.391,0.391l-0.195-0.195L55.274,40.82z"/>
</g>
<g>
	<path fill="#A86514" d="M38.477,40.234l0.195-0.195L38.477,40.234z"/>
</g>
<g>
	<path fill="#D17405" d="M55.469,40.039l0.195,0.195l0.391-0.391l-0.391-0.195L55.469,40.039z"/>
</g>
<g>
	<path fill="#A86514" d="M38.672,40.039l0.391-0.391l-0.391-0.391l-0.195,0.586L38.672,40.039z"/>
</g>
<g>
	<path fill="#A86514" d="M38.086,38.867l0.391-0.195l0.195-0.195l-0.195-0.195l-0.391,0.391V38.867z"/>
</g>
<g>
	<path fill="#A86514" d="M54.883,38.477l0.391,0.195l0.195-0.586l-0.586,0.195V38.477z"/>
</g>
<g>
	<path fill="#A86514" d="M48.633,37.891l0.195,0.195l0.391-0.391L48.633,37.5V37.891z"/>
</g>
<g>
	<path fill="#A86514" d="M56.446,37.5l0.586-0.195v-0.195l-0.195-0.195l-0.391,0.391V37.5z"/>
</g>
<g>
	<path fill="#A86514" d="M43.36,37.305h0.391v-0.391l-0.391,0.195V37.305z"/>
</g>
<g>
	<path fill="#A86514" d="M41.016,36.523l0.195-0.391l-0.586-0.391l-0.195,0.195l0.391,0.391L41.016,36.523z"/>
</g>
<g>
	<path fill="#A86514" d="M47.266,36.523h0.391v-0.195l-0.391-0.195V36.523z"/>
</g>
<g>
	<path fill="#A86514" d="M43.164,36.328h0.586v-0.391l-0.586,0.195V36.328z"/>
</g>
<g>
	<path fill="#A86514" d="M41.406,35.742l0.391-0.195l-0.195-0.391l-0.391,0.195L41.406,35.742z"/>
</g>
<g>
	<path fill="#A86514" d="M42.969,35.352h0.586v-0.391l-0.977-0.195l-0.195,0.195L42.969,35.352z"/>
</g>
<g>
	<path fill="#A86514" d="M60.547,35.352h0.586v-0.195l-0.586-0.195V35.352z"/>
</g>
<g>
	<path fill="#A86514" d="M38.477,35.156h0.195l0.195-0.586l-0.586,0.195L38.477,35.156z"/>
</g>
<g>
	<path fill="#210F04" d="M42.578,34.766l0.977,0.195V34.57l-0.781-0.195L42.578,34.766z"/>
</g>
<g>
	<path fill="#A86514" d="M38.867,34.375h0.195l0.195-0.586l-0.586,0.195L38.867,34.375z"/>
</g>
<g>
	<path fill="#CDB345" d="M48.438,33.984l3.516-0.586l1.953-0.977l0.781-0.781l-0.391-0.391l-0.977-0.781l-0.391-0.391l-3.125,0.391
		l-2.344-0.586l-1.367-0.781l-1.367-1.367l-0.586-1.367l-0.781-0.781l-2.148-0.195l-0.781,0.391l-1.172,1.172l-0.391,1.172
		l-0.195,0.391l0.391,0.977l0.977,0.781l0.195,0.391h0.195l0.586,0.195l0.195-0.195l1.563-0.391l-0.195-1.172l-0.586-0.195
		l0.195-0.977l0.391,0.781l0.781-0.195l0.195,0.391l-0.195,1.563l0.586,1.367l1.172,1.172l1.367,0.586L48.438,33.984z"/>
</g>
<g>
	<path fill="#A86514" d="M62.891,33.398h-0.195l0.195,0.391l0.195-0.391H62.891z"/>
</g>
<g>
	<path fill="#A86514" d="M39.258,33.398l0.195-0.391l-0.586-0.391l0.195,0.586L39.258,33.398z"/>
</g>
<g>
	<path fill="#CDB345" d="M58.594,33.203l1.563-0.391l0.391-0.391l1.758-1.758l0.391-1.172l0.781-0.977l0.195,0.977l-0.586,0.586
		v0.586l0.977,0.781l0.586-0.195l0.195,0.195l0.781-0.586l0.391-0.781l0.195-1.563l-0.586-1.367l-0.391-0.391l-0.781-0.586
		L62.5,26.367l-0.781,0.977l-0.781,0.977l-0.586,0.586l-1.953,0.977l-0.781,0.391l-0.195,0.586l-0.586,0.586l1.367,1.367
		L58.594,33.203z"/>
</g>
<g>
	<path fill="#210F04" d="M39.258,33.398l-0.195-0.195l-0.195-0.586l0.586,0.391h0.195l-0.195-0.781l-0.586,0.195L39.258,33.398z"/>
</g>
<g>
	<path fill="#A86514" d="M39.258,33.008l-0.391-0.586h-0.195L39.258,33.008z"/>
</g>
<g>
	<path fill="#A86514" d="M36.524,32.227l0.391-0.195v-0.195h-0.391V32.227z"/>
</g>
<g>
	<path fill="#A86514" d="M64.844,32.031l0.195,0.195l0.977-0.195l0.391-0.781l-0.391-0.195l-0.195,0.391L64.844,32.031z"/>
</g>
<g>
	<path fill="#A86514" d="M55.078,32.031l0.391-0.195L55.078,32.031z"/>
</g>
<g>
	<path fill="#A86514" d="M61.719,32.031h0.391l-0.195-0.195L61.719,32.031z"/>
</g>
<g>
	<path fill="#A86514" d="M40.235,31.25l0.195-0.586h-0.195l-0.195,0.391L40.235,31.25z"/>
</g>
<g>
	<path fill="#E4B5A3" d="M54.492,30.859l2.148-0.195l0.391-0.781l-0.195-0.391l-1.172-0.391l-1.367,0.195l-0.586,0.586l0.195,0.586
		L54.492,30.859z"/>
</g>
<g>
	<path fill="#A86514" d="M35.742,30.469l0.195-0.195L35.742,30.469z"/>
</g>
<g>
	<path fill="#A86514" d="M35.938,30.273l0.195-0.195L35.938,30.273z"/>
</g>
<g>
	<path fill="#210F04" d="M64.649,30.078l0.586-0.195l-0.391-0.391L64.649,30.078z"/>
</g>
<g>
	<path fill="#FEFEFE" d="M49.219,29.883l3.32-0.195l1.563-0.781l0.977-0.781l-0.391-0.391h-0.391L52.93,27.93v-0.195l-0.977,0.195
		l-1.563,0.195l-0.781-0.586l-1.953-0.391l-2.734-0.781l0.195,1.172l1.367,1.172l1.758,0.781L49.219,29.883z"/>
</g>
<g>
	<path fill="#FEFEFE" d="M57.813,29.492l1.367-0.391l0.781-0.586l0.977-0.977l-0.391-0.391l-2.344,0.586l-0.781,0.391L55.86,27.93
		l-0.195,0.586l1.563,0.391l0.391,0.391L57.813,29.492z"/>
</g>
<g>
	<path fill="#210F04" d="M39.649,29.102l0.586-0.195l-0.391-0.391l-0.391,0.391L39.649,29.102z"/>
</g>
<g>
	<path fill="#A86514" d="M37.696,28.516h0.391v-0.781h-0.391V28.516z"/>
</g>
<g>
	<path fill="#210F04" d="M64.649,28.516l0.391-0.195l-0.391-0.195V28.516z"/>
</g>
<g>
	<path fill="#CDB345" d="M52.93,27.734v0.195l1.367-0.195H52.93z"/>
</g>
<g>
	<path fill="#D17405" d="M37.5,27.734h0.195h0.391l0.781-1.367l0.781-0.586l0.781-0.586l2.344-0.391L43.164,25l0.391-0.586
		l-0.195-2.148l0.391-1.953l0.586-1.758l0.977-1.563l1.172-1.172l-0.195-0.586l-1.172,0.195l-0.391,0.195l0.195-0.977l0.781-1.367
		l0.391-0.391l0.781-1.172l0.391-0.391l1.172-1.172l0.977-0.781l1.172-0.781V8.203l-2.148,0.391L46.68,9.57l-0.781,0.586
		l-0.781,0.586l-0.781,0.781l-0.586,0.781l-0.977,2.148l-0.195,1.172l0.195,0.391l-0.586,0.586l0.586,0.391v0.195l0.195,0.391
		l0.195,0.391l-0.195,0.195l0.391,0.781l-0.586,0.195h-0.391l-0.586-0.195l-0.781,0.195v-0.195l-0.391-0.195l-0.781,0.391
		l-0.195-0.195l-0.391-0.195l-0.586,0.195l-0.391-0.195l-0.391,0.391l0.195,0.391l0.391,0.195l-0.195,0.391l0.391,0.391l0.195,0.586
		l0.195,0.195l0.586,0.195v0.195l0.195,0.391l0.391,0.391v0.195l0.391,0.195l-0.391,0.391h-0.195l-0.391,0.195v-0.195l-0.586,0.195
		h-0.586l-0.586,0.391l-0.195-0.195h-0.391l-0.781,0.391l-0.586,0.195l-0.586,0.586l-0.195,0.391l0.586,0.195v0.781l0.586,0.195
		v0.195l0.586,0.586l0.586,0.195V27.734z"/>
</g>
<g>
	<path fill="#210F04" d="M40.039,27.734l0.586-0.195l-0.391-0.391l-0.391,0.195L40.039,27.734z"/>
</g>
<g>
	<path fill="#D17405" d="M52.149,27.344l3.516-0.195l0.781-1.563l0.391-1.563l0.195-2.93l-0.977-3.125l-0.781-0.781l-0.977-0.977
		l-1.563-0.781l-1.953-0.391l-2.148,0.391l-1.172,0.586l-0.781,0.586l-0.781,0.781l-1.367,2.734l-0.586,2.344l0.195,2.734
		l1.563,0.781l2.344,0.586L50,26.953L52.149,27.344z"/>
</g>
<g>
	<path fill="#D17405" d="M56.836,27.344l3.711-0.391l0.977-0.586l0.586-1.758l0.195-2.539l-0.391-2.148l-1.367-2.734l-1.367-1.172
		l-0.781-0.391l-1.172-0.391l-2.148,0.195l0.195,0.781l0.391,0.391l0.781,0.977l0.781,2.539l0.195,3.906l-0.391,1.953l-0.391,0.781
		L56.836,27.344z"/>
</g>
<g>
	<path fill="#210F04" d="M63.867,27.344l0.391-0.195l-0.391-0.195V27.344z"/>
</g>
<g>
	<path fill="#A86514" d="M66.016,27.148l0.391-0.195v-0.195h-0.391V27.148z"/>
</g>
<g>
	<path fill="#A86514" d="M35.547,26.953l0.391-0.195l0.391-0.195v-0.195l-0.586-0.195L35.547,26.953z"/>
</g>
<g>
	<path fill="#D17405" d="M65.821,26.758h0.195h0.391l0.195-0.586l-0.391-0.977l-0.586-0.391l-0.195-0.391l-0.391-0.195l-0.977-0.195
		l-0.195-1.172l0.391-0.781l0.195-0.977l-0.781-0.391l-0.977,0.195l0.195,3.32l-0.195,1.367l0.391,0.195l1.172-0.195l1.172,0.586
		L65.821,26.758z"/>
</g>
<g>
	<path fill="#A86514" d="M65.039,24.219l0.391,0.195l-0.195-0.391L65.039,24.219z"/>
</g>
<g>
	<path fill="#A86514" d="M35.938,24.219l0.586-0.195l-0.195-0.391L35.938,24.219z"/>
</g>
<g>
	<path fill="#210F04" d="M37.696,23.633l0.195,0.195l0.586-0.391l0.195-0.586l0.781-1.172h0.195v-0.195l-0.586-0.195l-0.391,0.391
		l-0.781,1.563L37.696,23.633z"/>
</g>
<g>
	<path fill="#A86514" d="M37.305,23.633h0.391l0.195-0.391l0.781-1.563l0.391-0.391l-0.195-0.195l-0.586,0.586L37.305,23.633z"/>
</g>
<g>
	<path fill="#A86514" d="M38.477,23.438h0.586l0.195-0.977l0.586-0.391l-0.195-0.391h-0.195l-0.781,1.172L38.477,23.438z"/>
</g>
<g>
	<path fill="#210F04" d="M39.063,23.438l0.586-0.195l0.195-0.586l0.391-0.195l-0.391-0.391l-0.586,0.391L39.063,23.438z"/>
</g>
<g>
	<path fill="#A86514" d="M39.649,23.242v0.195l0.391-0.195l0.195-0.586v-0.195l-0.391,0.195L39.649,23.242z"/>
</g>
<g>
	<path fill="#210F04" d="M40.039,23.242h0.195l0.391-0.391l-0.391-0.195L40.039,23.242z"/>
</g>
<g>
	<path fill="#A86514" d="M63.867,22.852l0.391-0.391V22.07L63.867,22.852z"/>
</g>
<g>
	<path fill="#A86514" d="M38.086,20.703l0.586-0.195l-0.391-0.391L38.086,20.703z"/>
</g>
<g>
	<path fill="#A86514" d="M41.797,18.945l0.586,0.195l0.195-0.586l0.391,0.195l-0.195,0.391l0.586-0.195l-0.391-0.781l-0.977,0.391
		L41.797,18.945z"/>
</g>
<g>
	<path fill="#210F04" d="M42.383,19.141h0.391l0.195-0.391l-0.391-0.195L42.383,19.141z"/>
</g>
<g>
	<path fill="#A86514" d="M38.281,18.75l0.391,0.195l-0.195-0.391L38.281,18.75z"/>
</g>
<g>
	<path fill="#A86514" d="M39.258,18.75l0.391,0.195l0.195-0.586l-0.586,0.195V18.75z"/>
</g>
<g>
	<path fill="#A86514" d="M40.625,18.75l0.391,0.195l0.391-0.781l-0.586,0.195L40.625,18.75z"/>
</g>
<g>
	<path fill="#A86514" d="M42.578,17.578h0.391l-0.195-0.391L42.578,17.578z"/>
</g>
<g>
	<path fill="#A86514" d="M60.352,16.211l1.172-0.195l-0.781-0.391l0.391-0.391l1.172-0.586l0.195-0.586l-1.563,0.781l-0.391,0.391
		l-0.195,0.781V16.211z"/>
</g>
<g>
	<path fill="#D17405" d="M60.156,16.016h0.195l0.195-0.781h-0.391l-0.195,0.391L60.156,16.016z"/>
</g>
<g>
	<path fill="#A86514" d="M59.571,15.625h0.391l0.195-0.391l-0.195-0.195l-0.391,0.391V15.625z"/>
</g>
<g>
	<path fill="#D17405" d="M59.375,15.43h0.195l0.391-0.391l0.586-0.781l-0.391-0.195l-0.781,0.586l-0.195,0.195v0.391L59.375,15.43z"
		/>
</g>
<g>
	<path fill="#D17405" d="M47.071,15.234l1.367-0.195l1.953-0.391l2.93,0.195l0.781,0.391l0.586-1.172v-0.195h-0.195l-0.781,0.391
		l0.195-0.977l-0.586,0.195l-0.195,0.586l-0.391,0.195l-0.195-0.586l0.391-1.367L52.539,12.5l-0.781,1.367l-0.586,0.195l0.195-1.758
		l0.391-0.391l-0.391-0.195l-0.195,0.586l-0.586,0.781l-0.391,0.781l-0.391-0.195L50,12.109h-0.195l-0.781,1.367l-0.586,0.586
		l-0.195-0.977l0.195-0.781l-0.586,0.586l-0.195,0.586l-0.391-0.195v-0.195h-0.391l-0.391,0.391l-0.586,1.172l1.172,0.391V15.234z"
		/>
</g>
<g>
	<path fill="#A86514" d="M58.789,15.234h0.391v-0.391l-0.391-0.195l-0.391,0.195L58.789,15.234z"/>
</g>
<g>
	<path fill="#D17405" d="M58.008,14.844h0.391l0.391-0.195l0.977-1.172l-0.195-0.195l-1.367,0.781l-0.391,0.195v0.391L58.008,14.844
		z"/>
</g>
<g>
	<path fill="#D17405" d="M56.641,14.648h0.781l0.195-0.586l0.195-0.586l-0.977,0.391l-0.391,0.586L56.641,14.648z"/>
</g>
<g>
	<path fill="#A86514" d="M57.422,14.648h0.391v-0.391l-0.195-0.195L57.422,14.648z"/>
</g>
<g>
	<path fill="#A86514" d="M60.742,14.063l0.586-0.195l0.586-0.391l-0.586-0.195l-0.586,0.586V14.063z"/>
</g>
<g>
	<path fill="#A86514" d="M54.492,13.867h0.195l0.586-1.172L54.883,12.5L54.492,13.867z"/>
</g>
<g>
	<path fill="#D17405" d="M55.664,13.867l0.586-0.195l0.781-0.586l0.781-0.391l1.172-0.586l1.758-0.781l1.953-0.391v-0.391
		l-2.344-0.391l-2.734,0.195l-0.781,0.391l-0.781,0.781L55.664,13.867z"/>
</g>
<g>
	<path fill="#A86514" d="M58.008,13.477l0.391-0.195l-0.391-0.195V13.477z"/>
</g>
<g>
	<path fill="#A86514" d="M59.571,13.281l0.195,0.195l0.391-0.391L59.571,13.281z"/>
</g>
<g>
	<path fill="#A86514" d="M46.875,13.086h0.391l-0.195-0.391L46.875,13.086z"/>
</g>
<g>
	<path fill="#A86514" d="M53.711,13.086l0.391-0.195l-0.391-0.195V13.086z"/>
</g>
<g>
	<path fill="#A86514" d="M49.805,12.109H50l0.977-0.977l-0.391-0.195l-0.781,0.977V12.109z"/>
</g>
<g>
	<path fill="#A86514" d="M52.93,12.109l0.586-0.195l0.195-0.781l-0.586,0.195L52.93,12.109z"/>
</g>
<g>
	<path fill="#A86514" d="M48.633,11.914l0.586-0.586l-0.391-0.195L48.633,11.914z"/>
</g>
<g>
	<path fill="#A86514" d="M51.758,11.523l0.391-0.195l-0.195-0.195L51.758,11.523z"/>
</g>
<g>
	<path fill="#A86514" d="M62.696,10.938l0.586-0.195l-0.586-0.195V10.938z"/>
</g>
<g>
	<path fill="#A86514" d="M50.586,8.594l0.977-0.195l-0.195-0.391l-0.781,0.195V8.594z"/>
</g>
</svg>
