<?xml version="1.0" encoding="utf-8"?>
<!-- Generator: Adobe Illustrator 13.0.2, SVG Export Plug-In . SVG Version: 6.00 Build 14948)  -->
<!DOCTYPE svg PUBLIC "-//W3C//DTD SVG 1.0//EN" "http://www.w3.org/TR/2001/REC-SVG-20010904/DTD/svg10.dtd">
<svg version="1.0"
	 id="Layer_1" xmlns:inkscape="http://www.inkscape.org/namespaces/inkscape" xmlns:svg="http://www.w3.org/2000/svg"
	 xmlns="http://www.w3.org/2000/svg" xmlns:xlink="http://www.w3.org/1999/xlink" x="0px" y="0px" width="54.633px"
	 height="100.318px" viewBox="-0.16 -0.159 54.633 100.318" enable-background="new -0.16 -0.159 54.633 100.318"
	 xml:space="preserve">
<desc>Clipart software</desc>
<rect x="-0.16" y="-0.16" fill="none" stroke="#0000FF" stroke-width="0.1003" width="54.632" height="100.319"/>
<g>
	<path fill="#FEFEFE" d="M0,100h23.003l-0.16-0.319l-0.639-0.16l-0.16-0.479l0.639-0.958l0.479-0.16l0.958-0.479l0.958-0.32
		l0.319-1.118l0.799-0.639h0.16l0.319-0.479l-0.16-0.319l-0.319-0.319l-0.32-1.118l0.639-0.16l0.319,1.438l0.16,0.32h0.16
		l0.319-5.592l-0.16-0.159l-0.32-0.16v-0.159l-0.319-1.598v-0.319l-0.16-0.319l-0.319-3.515l-0.32-0.959l-0.319-1.118l-0.319-0.639
		v-0.159l-0.32-0.959l-0.319-1.118l-0.639-2.077l-0.639-3.034l-0.799-1.278l-0.479-1.917l-0.32-8.307h-0.16l-2.077,0.639
		l-1.597,0.639l-1.438,0.479l-2.077,0.799l-2.716,0.959l-1.597,0.639l-1.438,0.479l-1.597,0.639l-1.438,0.479l-1.597,0.639
		l-1.438,0.479L0.958,68.85L0,69.169V100z"/>
</g>
<g>
	<path fill="#101010" d="M23.003,100h3.674l0.319-0.319l1.597-0.16l1.438-0.799l1.279-0.799l0.798-0.319l0.319,0.319l2.717-0.159
		l1.756-0.799l-0.159-1.917l-0.799-1.917l-0.958,0.159l-0.639,0.32l-1.438,0.319l-0.159-0.16l-1.278,0.319l-1.278-0.159l-0.16-0.319
		l-0.318-0.16l-0.479,0.16l-0.64,0.159l-0.639,0.639l-0.16,0.32l-0.479,0.319l-0.16-0.319h-0.16l-0.16,0.639l0.16,0.479
		l-0.319,0.319l-0.16-0.479l0.16-0.159l-0.319-0.16h-0.16l-0.799,0.639l-0.319,1.118l-0.958,0.32l-0.958,0.479l-0.479,0.16
		l-0.639,0.958l0.16,0.479l0.639,0.16L23.003,100z"/>
</g>
<g>
	<path fill="#FEFEFE" d="M26.677,100l27.635-0.16V87.221l-0.639-0.16l-1.438-1.438l-1.758-1.598l-1.756-1.598l-1.758-1.598
		l-1.758-1.597l-1.756-1.598l-1.598-1.438l-0.32-0.16l-0.958,0.799l-1.278,1.118l-1.277,1.118l-1.438,1.278l-1.278,1.118
		l-1.438,1.277l-0.318,0.319l-0.48,0.16v1.278l0.32,0.159l-0.16,0.16l0.639,3.515l-0.159,0.319l-0.159,0.958l0.159,0.319l-0.64,0.16
		l-0.479,0.639l0.16,1.278l0.639,0.958l0.959,0.319h0.639l0.958-0.159l0.799,1.917l0.159,1.917l-1.756,0.799l-2.717,0.159
		l-0.319-0.319l-0.798,0.319l-1.279,0.799l-1.438,0.799l-1.597,0.16L26.677,100z"/>
</g>
<g>
	<path fill="#979797" d="M26.358,95.367l0.319,0.16l-0.16,0.159l0.16,0.479l0.319-0.319l-0.16-0.479l0.16-0.639l-0.16-0.32
		l-0.319,0.16l0.16,0.319L26.358,95.367l0.319,0.319L26.358,95.367z"/>
</g>
<g>
	<path fill="#FEFEFE" d="M27.157,94.729l0.16,0.319l0.479-0.319l0.16-0.32l0.639-0.639l0.64-0.159l0.159-0.32l0.32-0.319
		l0.159-1.118l-0.319-1.277l-0.319-1.118l-0.958-0.479l-0.799,0.159L27.157,94.729z"/>
</g>
<g>
	<path fill="#979797" d="M27.795,94.729l0.16-0.32L27.795,94.729z"/>
</g>
<g>
	<path fill="#101010" d="M26.837,94.408l-0.319-1.438l-0.639,0.16l0.32,1.118l0.319,0.319L26.837,94.408l-0.319-1.438l-0.639,0.16
		l0.16,0.799L26.837,94.408z"/>
</g>
<g>
	<path fill="#979797" d="M29.233,93.611l0.479-0.16l0.318,0.16l0.16,0.319l1.278,0.159l1.278-0.319l0.159,0.16l1.438-0.319
		l0.639-0.32h-0.639l-0.959-0.319l-0.639-0.958l-0.16-1.278l0.479-0.639l0.64-0.16l-0.159-0.319l0.159-0.958l-0.319,0.319
		l-1.438,0.479l-2.236,0.319l-0.479-0.319l0.319,1.118l0.319,1.277l-0.159,1.118l-0.32,0.319L29.233,93.611l0.639-0.16l0.319,0.319
		L29.233,93.611z"/>
</g>
<g>
	<path fill="#101010" d="M29.233,89.457l0.479,0.319l2.236-0.319l1.438-0.479l0.319-0.319l0.159-0.319l-0.639-3.515l-0.16-0.319
		v-1.278l-0.159-1.917l-0.319-0.159l0.16-0.16l-0.479-3.354l-0.319-0.16l0.159-0.159l-0.159-0.479l-0.799,0.319l-0.639,0.319
		l-2.236,0.799l-2.077,0.799l-0.958,0.16l-0.32-0.16l0.32,0.959l0.319,0.639v0.159l0.319,1.118l0.32,0.959l0.319,3.515l0.319,0.159
		l-0.16,0.16v0.319l0.319,1.598l0.32,0.319l0.16,0.159l0.799-0.159L29.233,89.457z"/>
</g>
<g>
	<path fill="#979797" d="M26.997,88.658v0.159l0.32,0.16L26.997,88.658z"/>
</g>
<g>
	<path fill="#FEFEFE" d="M41.533,76.038l0.32,0.16l1.598,1.438l1.756,1.598l1.758,1.597l1.758,1.598l1.756,1.598l1.758,1.598
		l1.438,1.438l0.639,0.16V57.029l-8.945-1.118l-0.319,0.16l-0.319-0.319h-0.32l0.16,0.479l0.479,0.319l0.64-0.159l0.159,0.319
		l0.64,0.799l0.479,1.757l0.16,0.479l0.799,0.799l-0.32,0.16l-0.479-0.479l-0.479-0.959l-0.64-1.277l-0.318-0.319h-0.16l-0.32-0.16
		l-0.159-0.319h-0.159v0.799l0.479,0.319l-0.16,1.118l-0.479-0.16l-0.32-0.639L44.09,56.23h-0.32l-0.318,0.319l0.159,0.32
		l-0.319,2.236L41.533,76.038l0.639,0.319l1.279,1.278l1.756,1.598l1.758,1.597l1.758,1.598l1.756,1.598l1.758,1.598L41.533,76.038z
		"/>
</g>
<g>
	<path fill="#979797" d="M26.518,86.422l0.16,0.319l0.16-0.16L26.518,86.422z"/>
</g>
<g>
	<path fill="#979797" d="M33.066,84.505l0.16,0.319l0.16-0.16L33.066,84.505z"/>
</g>
<g>
	<path fill="#FAFAFA" d="M33.066,83.227l0.48-0.16l0.318-0.319l1.438-1.277l1.278-1.118l1.438-1.278l1.277-1.118l1.278-1.118
		l0.958-0.799l1.758-16.933l0.319-2.236l-0.159-0.32l0.318-0.319l-0.159-0.479l-0.64-0.32l-1.277-0.159l-0.319,1.277h-0.16
		l-0.319,0.64h-0.16l-0.479,0.159l-0.16-0.479l0.479-0.959l-0.159-2.236l0.159-0.479l0.159-0.958l0.479-0.959l-0.479-1.438
		l-2.875,0.479l-1.917,0.159l-0.958,0.32l-1.278,0.319v-0.16l-1.757,0.319l0.159,1.118l0.319,0.32l0.799,1.438l0.32,0.639
		l0.479,0.479l0.799,1.277l0.16,0.959l-0.16,0.16l0.16,0.319l0.479,0.639l-0.639,0.639l0.16-0.799l-0.32,0.16l-1.438,1.278
		l-0.16-0.16l-0.639,0.319l-0.319-0.319l-1.278-0.319l-0.159,3.993l0.319,1.278l0.32,2.556l-0.48,4.793l0.48,2.076l0.318,1.278
		l0.32,1.438l0.159,0.479l0.16,0.319l0.479,3.354l0.159,0.319L33.066,83.227z"/>
</g>
<g>
	<path fill="#979797" d="M32.748,80.99l-0.16,0.16l0.319,0.159L32.748,80.99z"/>
</g>
<g>
	<path fill="#979797" d="M25.24,80.032v0.159l0.319,0.639v-0.159L25.24,80.032z"/>
</g>
<g>
	<path fill="#0D0D0D" d="M24.92,79.073l0.32,0.16l0.958-0.16l2.077-0.799l2.236-0.799l0.639-0.319l0.799-0.319l-0.32-1.438
		l-0.318-1.278l-0.48-2.076l0.48-4.793l-0.32-2.556l-0.319-1.278l0.159-3.993l1.278,0.319l1.278-0.639v-0.16l0.16-0.479l-0.16-0.159
		l-3.515-0.479l-0.159-0.159l-0.16,0.159l-2.875-0.479l-4.313-0.639l-0.16-0.16l-0.16,0.16l-0.32-0.16l-0.319,2.237l0.16,2.556h0.16
		l0.32,8.307l0.479,1.917l0.799,1.278l0.639,3.034l0.639,2.077L24.92,79.073z"/>
</g>
<g>
	<path fill="#979797" d="M32.108,77.317l-0.159,0.159l0.319,0.16L32.108,77.317z"/>
</g>
<g>
	<path fill="#0D0D0D" d="M34.984,72.365l1.117-0.16l0.64-0.479l0.319-0.319l0.799-1.277l0.479-1.118v-0.16l-0.64-0.16l-0.159-0.798
		l-0.319-0.32l-0.32-1.277l-0.318-0.799l-0.32-0.639l-0.319-0.479l0.159-0.16l-0.479-0.319l-0.16-0.799l-0.479-0.479l-0.32-0.159
		l-0.479-0.16l-0.639,0.319l-0.32,0.479l-0.319,0.639l0.479,1.438l0.319,3.514l0.479,2.716l0.319,0.64L34.984,72.365z"/>
</g>
<g>
	<path fill="#FEFEFE" d="M0,69.169l0.958-0.319l1.598-0.639l1.438-0.479l1.597-0.639l1.438-0.479l1.597-0.639l1.438-0.479
		l1.597-0.639l2.716-0.959l2.077-0.799l1.438-0.479l1.597-0.639l2.077-0.639l-0.16-2.556l0.319-2.237l-0.16-3.194l-0.958-0.959
		l-0.479-0.639l-0.799-0.639l-0.639-0.319L17.892,50l0.319-1.758l-0.479-0.479l-2.236-1.118l-0.319,0.319l-0.16,1.277l0.16,1.118
		l-0.799,0.16l-0.958-0.479l-0.16-3.674l0.319-1.278l0.16-2.236l0.799-1.277l0.319-0.319l0.639-1.119l0.479-0.639l0.479-1.118
		l0.799-1.917l0.639-1.598v-0.159l-0.16-0.64l-1.118-0.479l-0.639-0.319l-2.077-0.959L12.3,30.511l-1.278,0.64l-3.674,1.757
		l-3.674,1.757l-3.355,1.598H0V69.169z"/>
</g>
<g>
	<path fill="#191919" d="M34.664,62.46l0.32,0.159l0.479,0.479l0.16,0.799l0.479,0.319l-0.159,0.16l0.319,0.479l0.32,0.639
		l0.318,0.799l0.32,1.277l0.319,0.32l0.159,0.798l0.64,0.16l0.319-0.639l0.639-2.077l0.16-0.799l-0.16-0.319h0.32l0.159-3.194
		l0.319-0.32l0.32-1.277l-0.16-0.319l-0.32-0.319l-0.639-0.64l-0.639-0.319l-0.639-0.16l-0.32,0.32l-0.479-1.118h0.16l-0.16-0.479
		l-0.32-0.319v-0.16l-0.799-0.16l-0.159,0.479l0.479,0.64v0.159l0.319,0.16l0.319,1.438v0.479l-0.319,1.757l-0.64,0.479L35.304,62.3
		l-0.319-0.159L34.664,62.46l0.64,0.319l0.479,1.278l0.318,0.319l-0.159,0.159l0.319,0.32l0.32,0.799l0.639,1.916l0.479,0.959
		L34.664,62.46z"/>
</g>
<g>
	<path fill="#979797" d="M39.617,65.016h-0.32l0.16,0.319L39.617,65.016l-0.32,0.16L39.617,65.016z"/>
</g>
<g>
	<path fill="#979797" d="M38.818,64.697l0.479-0.479l-0.639-0.159l-0.16,0.479L38.818,64.697z"/>
</g>
<g>
	<path fill="#979797" d="M34.186,62.3l0.479,0.16l0.32-0.319l0.319,0.159l0.798-0.159l0.64-0.479l0.319-1.757l-0.319-0.16
		l0.159-0.319h0.16l-0.319-1.438l-0.319-0.16l-0.16,0.479l0.32,0.639l-0.48,0.319l-0.159,0.479l-0.639,0.319l0.159,1.118l0.639,0.16
		l-0.318,0.319l-1.119,0.319L34.186,62.3z"/>
</g>
<g>
	<path fill="#979797" d="M46.646,59.265l0.479,0.959l0.479,0.479l0.32-0.16l-0.799-0.799l-0.16-0.479H46.646l0.479,0.959
		L46.646,59.265z"/>
</g>
<g>
	<path fill="#979797" d="M33.066,60.543l0.799-0.16l-0.159-0.319l-0.64,0.319V60.543z"/>
</g>
<g>
	<path fill="#979797" d="M32.108,59.744l0.319,0.319l0.639-0.319l0.16,0.16l1.438-1.278l0.32-0.16l-0.16,0.799l0.639-0.639
		l-0.479-0.639l-0.16-0.319l-1.277,1.277h-0.16v0.16L32.108,59.744z"/>
</g>
<g>
	<path fill="#FAFAFA" d="M37.061,59.425H36.9l-0.159,0.319l0.319,0.16V59.425l-0.319,0.16L37.061,59.425z"/>
</g>
<g>
	<path fill="#979797" d="M37.381,57.668h-0.16l0.479,1.118l0.32-0.32l0.639,0.16l0.639,0.319l0.639,0.64l0.32,0.319l-0.16-0.959
		l-0.799-0.958l-0.479-0.16l-0.64,0.319l-0.319,0.16l-0.319-0.319L37.381,57.668l-0.16,0.319l0.319,0.639l0.319,0.16l0.319-0.32
		l0.958,0.32l0.799,0.799L37.381,57.668z"/>
</g>
<g>
	<path fill="#979797" d="M44.408,58.626l0.32,0.639l0.479,0.16l0.16-1.118l-0.479-0.319l-0.32,0.639H44.408l0.16,0.479
		L44.408,58.626z"/>
</g>
<g>
	<path fill="#191919" d="M45.527,57.668h0.16l0.318,0.319l0.64,1.277h0.319l-0.479-1.757l-0.64-0.799l-0.319,0.319l0.16,0.16
		L45.527,57.668l0.479,0.159l0.16,0.799L45.527,57.668z"/>
</g>
<g>
	<path fill="#191919" d="M33.387,58.946h0.16l1.277-1.277l0.16-0.16l-0.16-0.959l-0.799-1.277l-0.479-0.479l0.159,0.479l0.159,0.159
		l-0.318,0.799l0.159,0.319l-0.159,0.479l0.159,0.16l-0.159,0.319l0.159,0.16l-0.159,0.319l0.159,0.159l-0.319,0.16l0.16,0.159
		L33.387,58.946z"/>
</g>
<g>
	<path fill="#191919" d="M44.408,58.626h0.16l0.32-0.639v-0.799l0.159-0.64l-0.479-0.319l-0.16-0.479l-0.318-0.32l-0.32-0.798
		l-0.958-0.799l-0.159,0.159l-0.32-0.319l-0.319,0.16l-0.319,0.159l-0.639-0.159l-0.16-0.16h-0.479l0.159,2.236l-0.479,0.959
		l0.16,0.479l0.479-0.159l0.16-0.64h0.319h0.16l0.319-1.277l1.277,0.159l0.64,0.32l0.159,0.479h0.32L44.408,58.626z"/>
</g>
<g>
	<path fill="#0D0D0D" d="M21.725,56.549l0.32,0.16l0.16-0.16l0.16,0.16l4.313,0.639l2.875,0.479l0.16-0.159l0.159,0.159l3.515,0.479
		l0.319-0.16l-0.159-0.159l0.159-0.319l-0.159-0.16l0.159-0.319l-0.159-0.16l0.159-0.479l-0.159-0.319l0.318-0.799l-0.159-0.159
		l-0.159-0.479l-0.32-0.639l-0.799-1.438l-0.319-0.32l-0.159-1.118l1.757-0.319l0.479-0.319L34.025,50l0.16-0.16l-0.16-0.479
		l0.32-0.639l-0.32-0.639l0.16-0.479l-0.16-0.159l0.32-0.479l-0.16-1.278l0.16-0.159l-0.16-0.32l0.16-0.159l-0.16-0.16l0.16-0.319
		l-0.16-0.319l0.16-0.16l-0.32-0.479l0.32-0.32l-0.16-0.319l0.16-0.479l-0.16-0.479l0.319-0.319l-0.319-0.799l0.16-0.319l-0.16-0.16
		l0.16-0.159l-0.32-0.799l-0.319-0.32l-0.319-0.319h-0.799l-1.438,0.319l-0.639,0.32l-0.48,0.159l-0.318,0.319l-3.994,0.16H25.24
		l-0.479,0.479l-0.16,0.319l-0.319,1.118l0.479,0.159l0.16,0.32l-0.958,0.319l-0.16,0.479l-0.319,0.32l-0.319,0.639l-0.16,0.639
		l-0.32,0.479l-0.319,1.278l-0.479,0.958l-0.16,0.319l0.16,0.16l-0.639,0.958l0.16,0.319l-0.319,0.16l-0.479,1.278l-0.319,0.958
		h-0.16l0.479,0.639l0.958,0.959L21.725,56.549l0.479,0.16l0.16-0.16l1.598,0.32l3.514,0.479l2.237,0.479l0.159-0.159l1.278,0.319
		L21.725,56.549z"/>
</g>
<g>
	<path fill="#979797" d="M44.889,57.189h0.159l0.159,0.319l0.32,0.16l0.16-0.479l-0.16-0.16l0.319-0.319l-0.159-0.319l-0.64,0.159
		L44.889,57.189l0.318,0.159L44.889,57.189z"/>
</g>
<g>
	<path fill="#979797" d="M36.9,56.709v0.16l0.32,0.319l0.319-0.319L36.9,56.709z"/>
</g>
<g>
	<path fill="#979797" d="M40.734,57.189h0.16l0.319-0.64h-0.319L40.734,57.189z"/>
</g>
<g>
	<path fill="#FDFDFD" d="M44.408,55.751h0.32l0.319,0.319l0.319-0.16l8.945,1.118V28.435L44.09,29.712v1.758l0.159,0.159v0.959
		l0.319,0.319l0.16,0.799l0.16,0.319l0.159,2.236l0.159,0.319v0.799l0.16,5.112l-0.479,1.757l-0.32,0.639l-0.639,1.438l-0.16,0.958
		l0.479,2.556l-0.319,0.319l-0.319,0.319v0.16l0.479,0.479l-0.16,0.639l-0.479-0.479v-0.479v-0.16l-0.64-0.16l0.159,0.959
		l-0.159,0.319h-0.159l-0.32,0.319v0.16l0.16,0.479l0.16,0.319l-0.16,0.319l0.319,0.319v0.16l0.958,0.799l0.32,0.798L44.408,55.751
		l0.64,0.159l0.319,0.16l1.119-0.16l3.354,0.479L44.408,55.751z"/>
</g>
<g>
	<path fill="#FAFAFA" d="M40.895,53.674l0.16,0.16l0.639,0.159l0.319-0.159l0.319-0.16l0.32,0.319l0.159-0.159v-0.16l-0.319-0.319
		l0.16-0.319l-0.16-0.319l-0.16-0.479l-0.799,0.319l-0.639,0.639V53.674z"/>
</g>
<g>
	<path fill="#979797" d="M41.693,53.993l0.319-0.159L41.693,53.993z"/>
</g>
<g>
	<path fill="#979797" d="M40.416,53.674h0.479v-0.479h-0.319L40.416,53.674z"/>
</g>
<g>
	<path fill="#151515" d="M40.575,53.195h0.319l0.639-0.639l0.799-0.319v-0.16l0.32-0.319l0.159-0.319h0.159l-0.159-0.959l0.64,0.16
		l0.159-0.16l0.319-0.319l0.319-0.319l-0.479-2.556l0.16-0.958l0.639-1.438l0.32-0.639l0.479-1.757l-0.16-5.112l-1.438,0.16
		l-0.159,0.479l-0.799-0.319l-0.159,0.319l-1.438,0.479l-0.159,0.16l-0.16-0.16l-0.959,0.479l-0.479,0.159l-0.16-0.159l-1.118,0.479
		l-0.159-0.16l-0.959,0.319l-0.639,0.16l-1.758,0.319l-0.318,0.16l-0.16,0.159l0.16,0.16l-0.16,0.319l0.319,0.799l-0.319,0.319
		l0.16,0.479l-0.16,0.479l0.16,0.319l-0.32,0.32l0.32,0.479l-0.16,0.16l0.16,0.319l-0.16,0.319l0.16,0.16l-0.16,0.159l0.16,0.32
		l-0.16,0.159l0.16,1.278l-0.32,0.479l0.16,0.159l-0.16,0.479l0.32,0.639l-0.32,0.639l0.16,0.479L34.025,50l0.16,0.639l-0.479,0.319
		v0.16l1.278-0.319l0.958-0.32l1.917-0.159l2.875-0.479l0.479,1.438l-0.479,0.959L40.575,53.195z"/>
</g>
<g>
	<path fill="#161616" d="M17.892,33.706v0.159l-0.639,1.598l-0.799,1.917l-0.479,1.118l-0.479,0.639l-0.639,1.119l-0.319,0.319
		l-0.799,1.277l-0.16,2.236l-0.319,1.278l0.16,3.674l0.958,0.479l0.799-0.16l-0.16-1.118l0.16-1.277l0.319-0.319l2.236,1.118
		l0.479,0.479L17.892,50l0.798,0.799l0.639,0.319l0.799,0.639h0.16l0.319-0.958l0.479-1.278l0.319-0.16l-0.16-0.319l0.639-0.958
		l-0.16-0.16l0.16-0.319l0.479-0.958l0.319-1.278l0.32-0.479l0.16-0.639l0.319-0.639l0.319-0.32l0.16-0.479l0.958-0.319l-0.16-0.32
		l-0.479-0.159l0.319-1.118l0.16-0.319l0.479-0.479l-1.118-0.479l-0.32-0.639l-0.16-1.758l-0.319-0.319l-0.479-1.597l-0.16-1.598
		l0.32-3.674l0.319-1.917v-1.118l0.479-1.758l0.32-0.799v-0.319l-0.479-0.159l-0.319-0.32l-0.799-0.319l-0.319,0.16l-0.16-0.479
		l-0.479-0.319l-0.319-0.319l-0.799,0.159l-0.16-0.319l-0.16,0.64l0.319,0.639l0.319,2.236l-0.16,0.479l0.16,1.757l-0.639,1.438
		l-0.32,0.64l-0.639,0.319l-0.16,0.479l-0.799-0.159l-1.118-0.959l-0.799-1.277l-0.639-0.64l-0.479-0.479l-0.16,0.799l-0.479,0.159
		l0.16-2.076l0.16-0.479l-0.16-0.16l0.16-0.159l0.16-0.959h-0.16l-0.319,0.16l-0.16,2.716l-0.16,1.597l0.16,0.16l0.639,0.16
		l0.319,0.639l0.319,0.319l0.958,1.118l0.479,0.16l0.319,0.479l0.479,0.32l0.479,0.159l0.319,0.16l-0.16,0.479h-0.16l-0.16,0.479
		L17.892,33.706l-0.16,0.799l-0.479,1.118l-0.479,1.118l-0.958,2.076l-0.479,0.64l-0.319,0.639l-0.639,0.799l-0.639,1.277
		l-0.319,3.195l-0.16,2.716l0.319,1.118l1.438,0.319l0.16-1.278l-0.16-1.118l0.319-0.319l0.479-0.159l1.757,0.958l0.479,0.479
		l0.16,0.479l-0.319,1.597l0.798,0.64l0.479,0.159L17.892,33.706z"/>
</g>
<g>
	<path fill="#979797" d="M42.652,51.757h0.159l0.159-0.319h-0.159L42.652,51.757z"/>
</g>
<g>
	<path fill="#191919" d="M43.451,50.799v0.479l0.479,0.479l0.16-0.639l-0.479-0.479L43.451,50.799l0.159,0.799L43.451,50.799z"/>
</g>
<g>
	<path fill="#979797" d="M43.451,50.799l0.159-0.16v-0.16l-0.159,0.16V50.799z"/>
</g>
<g>
	<path fill="#151515" d="M34.346,40.256l0.318-0.16l1.758-0.319l0.639-0.16l0.959-0.319l0.159,0.16l1.118-0.479l0.16,0.159
		l0.479-0.159l0.959-0.479l0.16,0.16l0.159-0.16l1.438-0.479l0.159-0.319l0.319-0.319l0.639,0.16l1.438-0.16v-0.799l-0.159-0.319
		l-0.159-2.236l-0.48-0.479l-0.159-0.958v-0.959L44.09,31.47v-1.758v-0.479l-0.16-0.16v-0.639l-0.479-0.319l-0.32-0.64l-0.319,0.479
		l-0.319-0.319l-0.639-4.153l-0.32-1.118l0.16-0.16l-0.319-0.958l-0.319-0.16l-0.479-1.598l-0.958-0.319l-0.32-0.319l-0.319-0.319
		l-0.799-0.639l-0.639-0.64l-0.799-0.319l-0.64-0.639l-0.639-0.319l-0.318,0.159l-0.16,0.319l-0.479-0.479l-0.64-0.319l-1.277,0.319
		l-0.639,0.319l0.159,0.479l0.479,0.958l0.16,0.319l-0.479-0.159l-0.479-1.118h-0.16l-0.159,0.319l0.159,0.159l-0.318,0.64h-0.16
		l-0.16,2.236v0.958l0.479,1.917l0.479,1.598v0.479l0.159,0.319v0.479l0.16,0.479l0.159,0.959l0.32,0.319l0.159,0.479v1.277
		l1.598,3.195l0.159,0.799l0.799,1.757l0.479,0.799l0.799,0.639l-0.958,0.799l-1.119,0.16l0.16,0.799l-1.438,0.319v0.159
		l0.319,0.319l0.319,0.32L34.346,40.256z"/>
</g>
<g>
	<path fill="#8D8D8D" d="M25.24,40.096h0.479l-0.16-0.319l-0.799-0.16l-0.479-0.319l0.16-0.479l0.16-0.799l-0.16-0.319l0.319-0.319
		l0.16-0.799l0.32-0.639l-0.16-0.319l0.16-0.16l-0.32-0.958l-0.479-1.598l0.16-0.16l-0.319-1.597l-0.479-2.077l-0.319-0.958h-0.16
		l-0.319,1.917l-0.32,3.674l0.16,1.598l0.479,1.597l0.319,0.319l0.16,1.758l0.32,0.639L25.24,40.096z"/>
</g>
<g>
	<path fill="#E0E0E0" d="M25.719,40.096l3.994-0.16l0.318-0.319l0.48-0.159l0.639-0.32l1.438-0.319l0.16-0.479l1.438-0.32
		l0.16-0.639l-0.48-0.319l1.119-0.16l0.479,0.16l0.32-0.319l0.318-0.319l-0.798-0.32l0.159-0.479l-0.318-0.64l-0.32-0.319
		l-0.319-1.277l-0.319-0.32l0.16-0.159l-0.48-1.438l-0.958-1.917v-0.16v-1.277l-0.319-0.16l-0.16-0.639l-0.159-0.959l-0.319-0.159
		l0.159-0.32V25.4l-0.319-0.16l0.16-0.159v-0.479l-0.32-0.16l-0.799-3.354h0.16v-0.958l-0.319-1.598l-0.479,0.639l-0.479,1.118
		l-0.32,0.64l-0.318,0.319l-0.48,2.236l-0.479,0.479l-0.32-0.32l-0.319-1.118l-0.319-0.958l-0.16-1.438l-0.639-0.64l-0.32-0.159
		l-0.798-0.64l-0.32-0.319h-0.16h-0.16l-0.319,0.799v0.319l0.319,0.319l0.16,1.119l0.16,0.319l-0.16,0.159l-0.16,1.598l-0.16,0.479
		l0.16,0.479l0.319,0.159l0.16,1.278l-0.32-0.16l-0.16-0.479l-0.639,1.278l-0.32,0.959h-0.319v1.118h0.16l0.319,0.958l0.479,2.077
		l0.319,1.597l-0.16,0.16l0.479,1.598l0.32,0.958l-0.16,0.16l0.16,0.319l-0.32,0.639l-0.16,0.799l-0.319,0.319l0.16,0.319
		l-0.16,0.799l-0.16,0.479l0.479,0.319l0.799,0.16L25.719,40.096z"/>
</g>
<g>
	<path fill="#5F5F5F" d="M32.588,38.818h0.799v-0.159l1.438-0.319l-0.16-0.799l1.119-0.16l0.958-0.799l-0.799-0.639l-0.479-0.799
		l-0.799-1.757l-0.159-0.799l-1.598-3.195v0.16l0.958,1.917l0.48,1.438l-0.16,0.159l0.319,0.32l0.319,1.277l0.32,0.319l0.318,0.64
		l-0.159,0.479l0.798,0.32l-0.318,0.319l-0.32,0.319l-0.479-0.16l-1.119,0.16l0.48,0.319l-0.16,0.639l-1.438,0.32L32.588,38.818z"/>
</g>
<g>
	<path fill="#FDFDFD" d="M42.812,37.699l0.799,0.319l0.159-0.479l-0.639-0.16L42.812,37.699z"/>
</g>
<g>
	<path fill="#8D8D8D" d="M33.387,37.22l0.319-0.159l-0.319-0.16V37.22z"/>
</g>
<g>
	<path fill="#5F5F5F" d="M45.048,36.262l0.159,0.319L45.048,36.262z"/>
</g>
<g>
	<path fill="#FFFFFF" d="M0,36.262h0.319l3.355-1.598l3.674-1.757l3.674-1.757l1.278-0.64l-1.278-7.188l-0.799-4.153l-0.799-4.153
		l-0.799-4.153L7.828,6.709L7.029,2.556L6.549,0L0,0.159V36.262z"/>
</g>
<g>
	<path fill="#5F5F5F" d="M44.249,32.588l0.159,0.958l0.48,0.479l-0.16-0.319l-0.16-0.799L44.249,32.588l0.319,1.277L44.249,32.588z"
		/>
</g>
<g>
	<path fill="#E0E0E0" d="M17.892,33.706l0.319-0.16l0.16-0.479l0.16-0.479l-0.16-0.16l-0.479-0.159l-0.16,0.798L17.892,33.706z"/>
</g>
<g>
	<path fill="#FAFAFA" d="M12.3,30.511l1.598,0.799l2.077,0.959l0.639,0.319l1.118,0.479l0.16-0.798l-0.479-0.32l-0.16,0.16
		l-0.639-0.799l-0.479-0.159l-0.319-0.32l-0.799-0.639l-0.799-0.958l0.16-0.16l-0.16-0.16l0.16-1.597l0.16-2.716l-0.16-0.319h0.319
		l0.16-0.64l0.16,0.64h-0.16v0.159h0.16l-0.16,0.959l1.757,0.319l0.479-0.16l0.639,0.64L18.69,25.4h0.479l0.319-1.118l0.16-0.319
		l-0.16-1.917l-0.16-1.758h0.16v-0.799l-0.16-0.319V18.69V18.37l-0.319-0.159l-0.32-0.64l0.479-0.159l-0.16-1.278l-0.32-0.159
		l-0.16-0.479l0.479-0.319l0.319-2.236V12.3l-0.319-0.319l-0.32-1.598l-0.479-0.958l-1.438-0.16l-0.32,0.16l-0.639-2.716
		l0.958-1.757l0.798-0.16l0.479-0.479l0.319,0.32h0.16l0.479-0.64l0.639-0.639l0.958-0.799l0.639-0.319l1.917-0.959l0.799-0.319
		l0.639-0.159h0.16V0H6.549l0.479,2.556l0.799,4.153l0.798,4.153l0.799,4.153l0.799,4.153l0.799,4.153L12.3,30.511l1.757,0.799
		l2.077,0.959l0.639,0.319L12.3,30.511z"/>
</g>
<g>
	<path fill="#8D8D8D" d="M18.371,33.067h0.16l0.16-0.479l-0.319-0.16l0.16,0.16L18.371,33.067z"/>
</g>
<g>
	<path fill="#8D8D8D" d="M16.613,31.31l0.639,0.799l0.16-0.16l-0.319-0.479L16.613,31.31z"/>
</g>
<g>
	<path fill="#5F5F5F" d="M44.09,31.47l0.159,0.159L44.09,31.47z"/>
</g>
<g>
	<path fill="#8D8D8D" d="M14.377,29.073l-0.16,0.16l0.799,0.958l0.799,0.639l0.319,0.32l0.479,0.159l-0.958-1.118l-0.319-0.319
		l-0.319-0.639L14.377,29.073l-0.16,0.319l0.639,0.64l0.959,0.798L14.377,29.073z"/>
</g>
<g>
	<path fill="#8D8D8D" d="M14.856,25.4l-0.16,0.159l0.16,0.16l-0.16,0.479l-0.16,2.076l0.479-0.159l0.16-0.799l0.479,0.479
		l0.639,0.64l0.799,1.277l1.118,0.959l0.799,0.159l0.16-0.479l0.639-0.319l0.32-0.64l0.639-1.438l-0.16-1.757l0.16-0.479
		l-0.319-2.236l-0.319-0.639l0.16-0.64l-0.479-1.438v-0.16l-0.319-0.319h-0.16l0.16,1.758l0.479,1.118l0.479,1.757l-0.319,0.319
		l-0.958,0.16H18.69l-0.958,0.799l-0.639-0.64l-0.479,0.16L14.856,25.4l-0.16,0.319l0.16,0.479l-0.319,1.917l0.319,0.159l0.32-0.639
		l0.16-0.319l0.639,0.958l0.479,0.479l0.639,0.958l0.958,0.799L14.856,25.4z"/>
</g>
<g>
	<path fill="#FEFEFE" d="M44.09,29.712l10.223-1.277L54.153,0h-9.585l-1.117,6.549l-0.48,2.557l-0.799,4.313l-0.639,3.515
		l-0.479,2.236l0.159,0.479l0.16,0.479l0.319,0.639l0.479,1.598l0.48,1.438l0.479,1.598l0.639,2.716l0.16,0.319v0.639l0.16,0.16
		V29.712z"/>
</g>
<g>
	<path fill="#5F5F5F" d="M43.93,29.073l0.16,0.16L43.93,29.073z"/>
</g>
<g>
	<path fill="#5F5F5F" d="M37.54,17.252l0.639,0.64l0.799,0.639l0.319,0.319l0.32,0.319l0.958,0.319l0.479,1.598l0.319,0.16
		l0.319,0.958l-0.16,0.16l0.32,1.118l0.639,4.153l0.319,0.319l0.319-0.479l0.32,0.64l0.479,0.319l-0.16-0.319L43.131,25.4
		l-0.479-1.598l-0.48-1.438l-0.479-1.598l-0.319-0.639l-0.16-0.479l-0.319-0.16l-0.479-0.479l-0.959-0.32l-0.16-0.479l-0.479-0.16
		l-0.799-0.639L37.54,17.252l0.639,0.64l0.799,0.639l0.319,0.319l0.639,0.479l0.64,0.159l0.639,1.758l0.319,0.159l0.16,0.959
		l-0.16,0.319l0.32,1.278l0.479,3.035l0.32,0.958l0.318-0.16l0.16-0.319l0.32,0.64L37.54,17.252z"/>
</g>
<g>
	<path fill="#5F5F5F" d="M32.428,27.317l0.16,0.639l0.319,0.16l-0.159-0.479L32.428,27.317z"/>
</g>
<g>
	<path fill="#8D8D8D" d="M23.323,26.997h0.319l0.32-0.959l0.639-1.278l0.16,0.479l0.32,0.16l-0.16-1.278l-0.319-0.159l-0.16,0.319
		h-0.16l-0.16,0.159l-0.32,0.799L23.323,26.997z"/>
</g>
<g>
	<path fill="#5F5F5F" d="M32.108,25.878l-0.159,0.32l0.319,0.159L32.108,25.878z"/>
</g>
<g>
	<path fill="#E0E0E0" d="M19.169,25.4l0.958-0.16l0.319-0.319l-0.479-1.757l-0.479-1.118l0.16,1.917l-0.16,0.319L19.169,25.4z"/>
</g>
<g>
	<path fill="#5F5F5F" d="M31.949,25.08l-0.16,0.159l0.319,0.16L31.949,25.08z"/>
</g>
<g>
	<path fill="#8D8D8D" d="M14.696,24.281h-0.319l0.16,0.319l0.319-0.16v-0.159H14.696l-0.319,0.159L14.696,24.281z"/>
</g>
<g>
	<path fill="#5F5F5F" d="M30.99,21.086h-0.16l0.799,3.354l0.32,0.16l-0.479-1.598L30.99,21.086l-0.16,0.479l0.799,2.875
		L30.99,21.086z"/>
</g>
<g>
	<path fill="#4B3234" d="M24.122,24.441l0.16-0.159l0.16-0.319h0.16l-0.16-0.479l-0.319,0.319v0.319V24.441z"/>
</g>
<g>
	<path fill="#6F6F6F" d="M14.696,24.281h0.16h0.16l-0.16-0.64L14.696,24.281z"/>
</g>
<g>
	<path fill="#5F5F5F" d="M24.281,24.281h0.16l0.16-0.319h-0.16L24.281,24.281z"/>
</g>
<g>
	<path fill="#0D0D0D" d="M20.288,22.204l0.16,0.319l0.799-0.159l0.319,0.319l0.479,0.319l0.16,0.479l0.319-0.16l0.799,0.319
		l0.319,0.32l0.479,0.159v-0.319l0.319-0.319l0.16-0.479l-0.319-1.917l-0.16-1.438l0.16-0.16v-0.319l-0.319-0.958l-0.799,0.319
		l-1.278-0.319l-0.639-1.278l-0.32-0.159l-0.319,0.479v0.799l-0.319,0.959l-0.479-0.16l-0.16,0.319v0.319l0.16,1.118v0.16
		L20.288,22.204l0.319,0.319l0.799-0.159l0.319,0.479l0.479,0.319l0.16,0.319l0.479-0.16l0.799,0.64L20.288,22.204z"/>
</g>
<g>
	<path fill="#5F5F5F" d="M26.038,19.329l0.32,0.159l0.639,0.64l0.16,1.438l0.319,0.958l0.319,1.118l0.32,0.32l0.479-0.479
		l0.48-2.236l0.318-0.319l0.32-0.64l0.479-1.118l0.479-0.639l0.319,1.598l0.16-2.236l-0.32-0.32l-0.159-2.236l-0.319-0.319
		l0.16-0.319l0.159-0.319l0.159,0.319v0.479l0.32,0.319l0.319,0.639l0.319,0.319l-0.16,0.32h0.16l0.479,1.118l0.479,0.159
		l-0.16-0.319l-0.479-0.958l-0.159-0.479l0.639-0.319l1.277-0.319l0.64,0.319l0.479,0.479l0.16-0.319l0.318-0.159l0.639,0.319
		l0.64,0.639l0.799,0.319l-0.64-0.639l-0.958-0.799l-1.438-0.639h-0.64l-1.597,0.319l-0.16,0.16l-0.639-0.32l-0.479-1.118v-0.159
		l-0.479-0.959l-0.32-0.639l0.16-0.479l0.319-0.639v-0.479l-0.64,0.319l-0.159,0.479l0.159,0.479L29.553,12.3l-0.16,0.479
		l-0.159-0.16l-0.159,0.479h0.159l0.479,0.16l0.479,1.438l-0.319,0.16l-0.479-0.16l-0.479-0.639v-0.479l-0.32,0.159l-0.159,0.32
		l0.159,0.319l-0.318,0.159l0.318,0.32l-0.159,0.479l0.479,0.64l0.16,0.479l-0.64,0.32l-0.319-0.32l-0.479,0.16l-0.319-0.16
		l-0.32,0.64l-0.16,0.479l0.32,0.64l0.319,0.639l-0.799,0.319l-0.319,0.16l-0.32-0.16V19.329l0.639,0.319l0.479,1.118l0.16,1.757
		l0.319,0.64L26.038,19.329z"/>
</g>
<g>
	<path fill="#161616" d="M14.696,23.483l0.479-0.16l-0.16-1.917l0.16-0.159l-0.16-0.319h0.16l0.16-0.479l0.319-1.598l-0.319-0.319
		l-0.319,0.319l-0.639,1.598l-0.16,1.598l0.319,0.639L14.696,23.483z"/>
</g>
<g>
	<path fill="#4B3234" d="M24.281,19.489l-0.16,0.16l0.16,1.438l0.319,1.917l0.16-1.598l-0.16-0.479h0.16l-0.16-1.119L24.281,19.489
		l-0.16,0.319L24.281,19.489z"/>
</g>
<g>
	<path fill="#8D8D8D" d="M24.76,20.927h-0.16l0.16,0.479l0.16-0.159L24.76,20.927z"/>
</g>
<g>
	<path fill="#4B3234" d="M15.176,20.927h-0.16l0.16,0.319l0.16-0.319H15.176z"/>
</g>
<g>
	<path fill="#4B3234" d="M19.489,20.287l0.319,0.319l-0.16-1.118h-0.16V20.287z"/>
</g>
<g>
	<path fill="#FCFCFC" d="M37.54,17.252l0.479,0.16l0.799,0.639l0.479,0.16l0.16,0.479l0.959,0.32l0.479,0.479l0.319,0.16
		l-0.159-0.479l0.479-2.236l0.639-3.515l0.799-4.313l0.48-2.557L44.568,0H24.76v0.799l0.32,0.319l0.958,0.958l0.32,0.319l0.479,0.16
		l1.598-0.639l1.917-0.16l0.959,0.479l0.159,1.278L30.99,4.154l-0.479,0.639l-0.32,0.639l0.16,0.479l0.16,0.479l0.159,0.319
		l0.159,0.479l0.48,1.438l-0.16,0.479l-0.16,1.118l-0.319,0.639v0.479l-0.319,0.639l-0.16,0.479l0.32,0.639l0.479,0.959l0.639,0.159
		l0.479-0.159l0.319,0.639l0.32,0.319l1.117,0.16h0.64l1.438,0.639l0.958,0.799L37.54,17.252l0.799,0.319l0.319,0.32l0.799,0.639
		l0.319,0.319l0.958,0.319L37.54,17.252z"/>
</g>
<g>
	<path fill="#6F6F6F" d="M19.329,19.169l0.16,0.319h0.16v-0.319H19.329z"/>
</g>
<g>
	<path fill="#4B3234" d="M24.76,18.37h0.16l0.32,0.319l0.798,0.64v-0.16l0.32,0.16l0.319-0.16l0.799-0.319l-0.319-0.639l-0.32-0.64
		l0.16-0.479l0.32-0.64l0.319,0.16l0.479-0.16l0.319,0.32l0.64-0.32l-0.16-0.479l-0.479-0.64l0.159-0.479l-0.318-0.32l0.318-0.159
		l-0.159-0.319l0.159-0.32l0.32-0.159l0.319-0.319v-0.16h-0.159l0.159-0.479l0.159,0.16l0.16-0.479l-0.479,0.16l-0.16,0.159
		l0.319-1.757l-0.479-0.479l0.16-0.159l-0.32-0.16l-0.479,0.479l-0.479,0.639l-0.319,1.598l0.16,0.958l-0.479,0.479l-0.319-0.319
		l-0.639-3.354l-0.639-0.479L25.08,9.905l-0.16,0.159l-0.16-0.159l-0.798,0.958l-0.958,0.959l0.319,0.319l0.799-0.319l-0.16,0.479
		l-0.32,0.16l-0.799,0.319l-0.319-0.319l-0.479,0.319l-0.799,0.958l-0.479,0.479l-0.16,0.319l-0.319,0.32l0.16,0.319l0.479-0.479
		l0.16,0.479l-0.32,0.159l-0.16,0.64l0.16,0.479l-0.319,0.479l-0.16,0.319h0.319l0.319-0.479l0.32,0.159l0.639,1.278l1.278,0.319
		l0.799-0.319l0.319,0.958l0.319-0.799l-0.16-0.319l0.319,0.16V18.37l0.479,0.16l0.16,0.479l0.479,0.159L24.76,18.37z"/>
</g>
<g>
	<path fill="#4B3234" d="M19.329,19.169h0.319l0.16-0.319l0.479,0.16l0.319-0.959l-0.319,0.319l-0.16,0.319h-0.799V19.169z"/>
</g>
<g>
	<path fill="#6F6F6F" d="M15.335,18.531l0.319,0.319l0.16-0.958l-0.479,0.159V18.531z"/>
</g>
<g>
	<path fill="#6F6F6F" d="M19.329,18.69h0.799l0.16-0.319l0.319-0.319v-0.799h-0.319l0.16-0.319l0.319-0.479l-0.16-0.479h-0.319
		l-0.639,0.799l-0.319-0.32v-0.159v-0.16H19.01l0.16,1.278v0.159l0.639,0.16v0.16l-0.16,0.319h-0.16l-0.16,0.159V18.69z"/>
</g>
<g>
	<path fill="#8D8D8D" d="M19.169,17.412l-0.479,0.159l0.32,0.64l0.319,0.159l0.16-0.159v-0.16l-0.319-0.319v-0.16V17.412
		l-0.479,0.159L19.169,17.412z"/>
</g>
<g>
	<path fill="#8D8D8D" d="M24.76,18.37v-0.159l-0.319-0.16l0.16,0.319H24.76l-0.16-0.319L24.76,18.37z"/>
</g>
<g>
	<path fill="#0D0D0D" d="M19.489,18.211h0.16l0.16-0.319l-0.319,0.159V18.211z"/>
</g>
<g>
	<path fill="#4B3234" d="M19.169,17.572v0.16l0.319,0.319l0.319-0.159v-0.16L19.169,17.572z"/>
</g>
<g>
	<path fill="#0D0D0D" d="M30.671,15.335l0.159,2.236l0.32,0.32h0.16l0.318-0.64l-0.159-0.159l0.159-0.319l0.16-0.32l-0.319-0.319
		l-0.319-0.639l-0.32-0.319L30.671,15.335z"/>
</g>
<g>
	<path fill="#8D8D8D" d="M19.648,17.412l0.32-0.16l-0.32-0.159V17.412z"/>
</g>
<g>
	<path fill="#6F6F6F" d="M22.843,17.412l0.639-0.319l0.639-0.64l0.319,0.16l0.16-0.319l0.319-0.319l0.479-0.959l-0.16-0.159
		l0.16-0.32l-0.16-0.159l-0.639-0.16l-0.16,0.16l-0.16-0.16l-0.958,0.479l-0.319,0.959l0.16,0.159l-0.32,0.639l-0.479,0.479
		L22.843,17.412z"/>
</g>
<g>
	<path fill="#4B3234" d="M19.329,16.294v0.159l0.319,0.32l0.639-0.799l-0.479-0.479l-0.16-0.16l-0.319,0.32l-0.319,0.159v0.319
		h0.319l0.479-0.159l-0.16,0.319H19.329z"/>
</g>
<g>
	<path fill="#5F5F5F" d="M24.441,16.614l0.958-0.16l0.479-0.639l0.16-0.479l0.639-0.479l-0.16-0.32l-0.479,0.16l-0.319-0.479
		l-0.479,0.16l0.16,0.159l-0.16,0.32l0.16,0.159l-0.479,0.959l-0.319,0.319L24.441,16.614z"/>
</g>
<g>
	<path fill="#0D0D0D" d="M19.329,16.294h0.319l0.16-0.319l-0.479,0.159V16.294z"/>
</g>
<g>
	<path fill="#8D8D8D" d="M19.01,15.176l-0.479,0.319l0.16,0.479l0.32,0.159v-0.319V15.176l-0.479,0.479L19.01,15.176z"/>
</g>
<g>
	<path fill="#0D0D0D" d="M21.246,16.134l0.639-0.159l-0.319-0.319l-0.319,0.319V16.134z"/>
</g>
<g>
	<path fill="#0D0D0D" d="M20.288,15.975h0.319l0.16-0.64l0.32-0.159l-0.16-0.479l-0.479,0.479l-0.16-0.319l0.319-0.32l0.16-0.319
		l0.479-0.479l0.799-0.958l0.479-0.319l0.319,0.319l0.799-0.319l0.32-0.16l0.16-0.479l-0.799,0.319l-0.319-0.319l0.958-0.959
		l0.798-0.958l0.16,0.159l0.16-0.159l0.319,0.159l0.639,0.479l0.639,3.354l0.319,0.319l0.479-0.479l-0.16-0.958l0.319-1.598
		l0.479-0.639l0.479-0.479l0.32,0.16l-0.16,0.159l0.479,0.479l-0.319,1.757l0.16-0.159l0.479-0.16l0.479-0.159l-0.159-0.479
		l-0.319-0.16l0.319-0.319h0.159l0.64-0.319l0.319-0.639l0.16-1.118l-0.639-0.319l-0.16-0.16h-0.32l-0.639-0.16l-0.639,0.16
		l-0.16-0.319l0.32-0.319h0.319h0.479l0.318,0.159l0.48,0.16l0.159-0.16l0.159-0.319l-0.159-0.479l0.159-0.159l-0.159-0.479
		l-0.479,0.16l0.16,0.479l-0.32,0.16l-0.159-0.639l0.159-0.16L29.393,6.39l0.16-0.319l0.959,0.319l-0.16-0.479l-0.16-0.479
		l0.32-0.639l0.479-0.639l0.479-0.639l-0.159-1.278l-0.959-0.479l-1.917,0.16l-1.598,0.639l0.16,0.319l0.958,0.959l0.479,0.639
		l0.319,0.319l0.799-0.319l0.319-0.16l-0.159,0.32l-1.278,0.798l-0.319,0.16l-0.16-0.16L27.316,5.91l-2.716,2.716l-0.799,0.799
		l-0.479,0.479l-0.639,0.479l-0.799,0.64l-0.958,0.799L20.447,12.3l-0.319,0.319l-0.32,0.32l-0.16,1.277v1.118l0.16,0.16
		L20.288,15.975z"/>
</g>
<g>
	<path fill="#6F6F6F" d="M19.01,15.815l0.319-0.159l0.319-0.32v-1.118l-0.319-1.277l-0.319,2.236V15.815z"/>
</g>
<g>
	<path fill="#5F5F5F" d="M28.435,15.815l0.159-0.159L28.435,15.815z"/>
</g>
<g>
	<path fill="#E0E0E0" d="M30.99,14.058v0.159l0.479,1.118l0.639,0.32l0.16-0.16l1.597-0.319l-1.117-0.16l-0.32-0.319l-0.319-0.639
		l-0.479,0.159L30.99,14.058l0.16,0.799l0.639,0.639L30.99,14.058z"/>
</g>
<g>
	<path fill="#4B3234" d="M30.512,14.697l-0.16,0.319l0.319,0.319l0.159-0.159v-0.479H30.512l-0.16,0.479L30.512,14.697z"/>
</g>
<g>
	<path fill="#5F5F5F" d="M27.157,15.176l0.319-0.16l-0.319-0.159V15.176z"/>
</g>
<g>
	<path fill="#E0E0E0" d="M28.914,13.578v0.479l0.479,0.639l0.479,0.16l-0.639-1.438v-0.159L28.914,13.578l0.16,0.799L28.914,13.578z
		"/>
</g>
<g>
	<path fill="#FCFCFC" d="M29.872,14.857l0.319-0.16l-0.479-1.438l-0.479-0.16v0.16v0.159L29.872,14.857z"/>
</g>
<g>
	<path fill="#0D0D0D" d="M30.512,14.697h0.318l-0.159-0.319L30.512,14.697z"/>
</g>
<g>
	<path fill="#4B3234" d="M19.329,12.94l0.319,1.277l0.16-1.277l0.32-0.32l0.319-0.319l0.479-0.479l0.958-0.799l0.799-0.64
		l0.639-0.479l0.479-0.479l0.799-0.799l2.716-2.716l0.639-0.479l0.16,0.16l0.319-0.16l1.278-0.798l0.159-0.32l-0.319,0.16
		l-0.799,0.319l-0.319-0.319l-0.479-0.639l-0.958-0.959l-0.16-0.319l-0.479-0.16l-0.16,0.16l-0.16-0.479L25.08,1.118l-0.479-0.16
		V0.799l-0.639,0.159l0.319,0.319l0.319,0.32l0.319,0.639l0.799,1.278l0.16,0.319L25.24,4.633l-0.32,0.639L23.962,5.91l-0.958,0.799
		l-2.077,2.077l-0.798,0.958l-0.32,0.639l-0.479,0.479l-0.16-0.159l0.319,1.597h-0.16V12.94z"/>
</g>
<g>
	<path fill="#6F6F6F" d="M18.371,4.633l-0.319-0.32l-0.479,0.479l-0.798,0.16l-0.958,1.757l0.639,2.716l0.32-0.16l1.438,0.16
		l0.479,0.958l0.32,1.598l0.319,0.319h0.16l-0.319-1.597L18.69,9.106l0.16-1.438l0.639-0.799l0.16-0.479l-0.319-0.16l-0.16,0.64
		l-0.32-0.16v-0.16l-0.319,0.16l-0.16,0.639l-0.479,0.16l0.16-0.479l0.479-0.958l0.639-0.319l0.16-0.64L18.69,4.792l-0.479,0.639
		L17.572,6.23l-0.639,0.799l-0.32,0.16l0.16-0.479l0.798-1.278L18.371,4.633l-0.479-0.32l-0.479,0.479l-0.799,0.319l-0.798,1.917
		l0.639,2.396l0.799-0.16l1.118,0.319V4.633z"/>
</g>
<g>
	<path fill="#4B3234" d="M30.031,11.182h-0.159l-0.319,0.319l0.319,0.16L30.031,11.182l-0.479,0.16L30.031,11.182z"/>
</g>
<g>
	<path fill="#0D0D0D" d="M19.169,10.703l0.16,0.159l0.479-0.479l0.32-0.639l0.798-0.958l2.077-2.077l0.958-0.799l0.958-0.639
		l0.32-0.639l0.639-0.799l-0.16-0.319L24.92,2.237l-0.319-0.639l-0.319-0.32l-0.319-0.319l-0.799,0.319l-1.917,0.959l-0.639,0.319
		l-0.958,0.799L19.01,3.993l-0.479,0.64l0.16,0.159l0.639,0.319l-0.16,0.64V6.23h0.16l0.319,0.16l-0.16,0.479L18.85,7.668
		l-0.16,1.438L19.169,10.703z"/>
</g>
<g>
	<path fill="#5F5F5F" d="M31.15,9.106l0.16-0.479l-0.48-1.438l-0.159,0.159l0.159,0.479l-0.159,0.319l0.159,0.479h-0.479l0.16,0.16
		L31.15,9.106z"/>
</g>
<g>
	<path fill="#4B3234" d="M29.233,7.988h-0.319l-0.32,0.319l0.16,0.319l0.639-0.16L29.233,7.988l-0.479,0.159l-0.16,0.319
		L29.233,7.988z"/>
</g>
<g>
	<path fill="#5F5F5F" d="M29.393,8.466l0.639,0.16V8.307l-0.318-0.16V7.988h-0.479L29.393,8.466z"/>
</g>
<g>
	<path fill="#6F6F6F" d="M30.031,8.626h0.32h0.479l-0.159-0.479l-0.159,0.16l-0.48-0.16v0.16V8.626z"/>
</g>
<g>
	<path fill="#4B3234" d="M29.713,7.988v0.159l0.318,0.16v-0.16L29.713,7.988z"/>
</g>
<g>
	<path fill="#4B3234" d="M19.169,5.751L18.53,6.071l-0.479,0.958l-0.16,0.479l0.479-0.16l0.16-0.639l0.319-0.16l0.32-0.319V5.751
		L18.53,6.071l-0.479,1.118L19.169,5.751z"/>
</g>
<g>
	<path fill="#4B3234" d="M30.512,6.39l-0.959-0.319l-0.16,0.319l0.639,0.319l-0.159,0.16l0.159,0.639l0.32-0.16l-0.16-0.479
		l0.479-0.16L30.512,6.39l-1.119-0.319l0.16,0.479l0.479,0.16l-0.159,0.639L30.512,6.39z"/>
</g>
<g>
	<path fill="#4B3234" d="M18.371,4.633l-0.799,0.798l-0.798,1.278l-0.16,0.479l0.32-0.16l0.639-0.799l0.639-0.799l0.479-0.639
		l-0.16-0.159H18.371l-0.958,1.118l-0.639,1.118L18.371,4.633z"/>
</g>
<g>
	<path fill="#FAFAFA" d="M18.85,6.549v0.16l0.32,0.16l0.16-0.64h-0.16L18.85,6.549z"/>
</g>
<g>
	<path fill="#FAFAFA" d="M18.53,5.591l0.479-0.16l-0.16-0.319L18.53,5.431V5.591z"/>
</g>
<g>
	<path fill="#6F6F6F" d="M26.038,2.076l0.16,0.479l0.16-0.16L26.038,2.076z"/>
</g>
<g>
	<path fill="#6F6F6F" d="M24.601,0.799v0.159l0.479,0.16l-0.32-0.319H24.601z"/>
</g>
</svg>
